<svg width="4715" height="7066" viewBox="0 0 4715 7066" fill="none" xmlns="http://www.w3.org/2000/svg">
<path d="M130.002 211H4606.33L4626.83 880.787L4491.42 3004.51L4238.84 6966H3810.86H2954.89H2526.91H2360.92H1765.44H924.472H503.988L371.989 5087.5L130.002 880.787V211Z" fill="white"/>
<path d="M130.002 880.787V211H4606.33L4626.83 880.787M130.002 880.787H503.988M130.002 880.787H2360.92M130.002 880.787L371.989 5087.5L503.988 6966H924.472M4626.83 880.787H2954.89H2360.92M4626.83 880.787L4491.42 3004.51L4238.84 6966H2526.91H2360.92M503.988 880.787L924.472 6966M503.988 880.787H2360.92M924.472 6966H2360.92M1344.96 880.787L1765.44 6966M3382.88 880.787L2954.89 6966M4238.84 880.787L3810.86 6966M2360.92 6966V880.787" stroke="#FF0000" stroke-width="100"/>
</svg>
