<svg width="1614" height="1033" viewBox="0 0 1614 1033" fill="none" xmlns="http://www.w3.org/2000/svg">
<ellipse cx="1068.5" cy="516.5" rx="507.5" ry="516.5" fill="url(#paint0_linear)"/>
<path d="M316.217 189.449C324.521 200.279 333.479 212.672 342.32 226.18L343.582 163.875L344.279 164.311C334.848 157.564 324.493 152.151 313.517 148.231L314.214 148.609L316.217 189.449Z" fill="#E6E6E6"/>
<path d="M312.817 147.992C301.43 144.194 290.382 142.934 280.283 144.695C279.758 144.787 279.241 144.893 278.726 145C281.292 147.692 296.245 163.591 314.757 187.551L312.817 147.992Z" fill="#E6E6E6"/>
<path d="M379.445 294.279C380.806 297.458 382.101 300.615 383.329 303.75L406.698 236.274L407.37 236.901C404.61 231.825 401.685 226.89 398.594 222.096L379.763 294.554L379.445 294.279Z" fill="#E6E6E6"/>
<path d="M365.799 265.824L378.011 195.08L378.704 195.623C368.749 184.088 357.431 173.746 344.987 164.814L343.7 228.306C351.928 241.002 359.294 253.509 365.799 265.824Z" fill="#E6E6E6"/>
<path d="M241.697 215.766L241.411 214.903C242.469 225.604 244.63 236.174 247.861 246.451L360.154 257.777C354.292 247.206 348.241 237.288 342.366 228.249L241.697 215.766Z" fill="#E6E6E6"/>
<path d="M248.422 248.176L248.126 247.313C249.262 250.935 250.536 254.598 251.947 258.302L251.644 257.44L365.295 267.319C363.922 264.692 362.534 262.101 361.13 259.544L248.422 248.176Z" fill="#E6E6E6"/>
<path d="M378.64 292.439L397.314 220.586L397.998 221.175C392.363 212.509 386.137 204.224 379.361 196.378L366.984 268.078C371.274 276.314 375.159 284.435 378.64 292.439Z" fill="#E6E6E6"/>
<path d="M383.393 307.359L272.795 296.944C278.809 304.865 285.359 312.384 292.4 319.449L292.126 318.491L393.222 338.829C390.592 328.156 387.309 317.647 383.393 307.359V307.359Z" fill="#E6E6E6"/>
<path d="M277.814 145.683L278.074 145.137C262.871 148.512 252.136 158.628 246.23 173.269L313.885 188.218C293.85 162.299 278.041 145.918 277.814 145.683Z" fill="#E6E6E6"/>
<path d="M385.378 309.105C388.85 318.406 391.801 327.886 394.219 337.501L420.556 272.907L421.199 273.538C419.532 264.549 416.707 255.804 412.791 247.51C411.238 244.258 409.611 241.055 407.912 237.901L384.264 306.182C384.638 307.157 385.017 308.134 385.378 309.105Z" fill="#E6E6E6"/>
<path d="M341.189 226.448C332.439 213.1 323.582 200.855 315.373 190.152L246.166 174.86L245.932 174.006C241.611 185.132 240.032 198.8 241.34 214.067L341.189 226.448Z" fill="#E6E6E6"/>
<path d="M271.452 295.145L382.682 305.619L382.704 305.554C377.879 293.114 372.372 280.937 366.207 269.076L252.276 259.172C254.211 264.181 256.397 269.244 258.835 274.36C262.386 281.649 266.609 288.606 271.452 295.145V295.145Z" fill="#E6E6E6"/>
<path d="M540.269 316.242L540.521 317.012C537.659 305.934 533.213 295.306 527.317 285.441L527.606 286.167L502.513 318.87C501.845 332.391 500.66 347.524 498.66 363.441L540.269 316.242Z" fill="#E6E6E6"/>
<path d="M526.934 284.82C520.641 274.793 512.953 266.932 504.026 261.989C503.562 261.732 503.095 261.491 502.628 261.252C502.849 264.926 503.996 286.498 502.626 316.498L526.934 284.82Z" fill="#E6E6E6"/>
<path d="M482.836 439.046C481.812 442.343 480.75 445.582 479.651 448.763L541.659 411.369L541.768 412.271C542.953 406.641 543.919 401.016 544.665 395.395L482.903 439.456L482.836 439.046Z" fill="#E6E6E6"/>
<path d="M490.886 408.619L546.433 361.75L546.613 362.601C546.469 347.507 544.497 332.482 540.739 317.842L498.336 365.94C496.392 380.85 493.908 395.077 490.886 408.619Z" fill="#E6E6E6"/>
<path d="M546.626 363.592L490.328 411.094C488.26 420.113 485.957 428.791 483.417 437.127L544.664 393.434L544.807 394.314C546.119 384.125 546.727 373.861 546.626 363.592Z" fill="#E6E6E6"/>
<path d="M437.972 524.006C438.022 523.265 438.069 522.503 438.114 521.722C448.148 510.033 456.704 497.204 463.599 483.513L429.598 442.079C429.152 440.665 428.686 439.254 428.199 437.848L464.39 481.951C469.326 472.091 473.652 461.949 477.346 451.582L405.767 381.268C405.991 380.716 406.217 380.15 406.446 379.574L477.933 449.799L477.993 449.763C482.39 437.172 486.091 424.358 489.079 411.378L418.09 342.66C418.24 342.022 418.386 341.381 418.531 340.736L489.523 409.456C490.178 406.577 490.799 403.715 491.386 400.871L420.605 330.391C420.723 329.718 420.838 329.043 420.95 328.366L491.787 398.901C494.167 387.103 495.975 375.689 497.346 365.063L427.953 292.66L428.296 291.817C426.652 294.159 425.055 296.615 423.497 299.16C423.539 291.114 422.871 283.079 421.5 275.145L394.911 340.358C397.059 349.349 398.599 358.47 399.519 367.659C399.358 369.214 399.213 370.777 399.097 372.356L399.971 373.214C400.026 374.052 400.078 374.888 400.12 375.721L398.958 374.579C398.903 375.494 398.862 376.416 398.821 377.338C398.277 364.935 396.54 352.61 393.631 340.526L293.275 320.336C298.33 325.411 303.629 330.342 309.043 335.098C298.533 331.877 287.627 330.054 276.62 329.68L277.402 329.829L292.215 368.063C303.536 375.853 315.972 384.932 328.65 395.105L310.413 336.296C311.089 336.883 311.766 337.469 312.445 338.051L330.635 396.71C342.473 406.298 353.431 415.965 363.51 425.712L355.151 370.506C355.737 370.906 356.32 371.302 356.9 371.695L365.35 427.497C372.033 434.033 378.295 440.582 384.135 447.142L380.084 386.618C380.659 386.969 381.223 387.313 381.777 387.65L385.872 448.813L385.482 448.649C387.781 451.26 390.01 453.871 392.169 456.482L392.952 394.252C393.556 394.597 394.113 394.915 394.625 395.205L393.828 458.512C394.491 459.326 395.161 460.141 395.81 460.955C402.052 468.752 407.856 476.875 413.195 485.288L413.572 479.626C414.038 481.305 414.504 482.955 414.97 484.576L414.755 487.796C415.534 489.062 416.289 490.327 417.034 491.591C417.615 493.52 418.189 495.395 418.758 497.216C417.109 494.229 415.387 491.271 413.592 488.343L311.768 499.476C365.307 527.016 431.744 540.072 435.978 540.886C434.974 536.542 433.752 532.237 432.347 527.972C432.713 527.598 433.074 527.219 433.435 526.841C433.608 527.35 433.787 527.86 433.954 528.369C433.765 528.566 433.579 528.769 433.389 528.966C433.599 528.869 433.818 528.767 434.047 528.661C435.026 531.659 435.902 534.648 436.678 537.627C436.988 535.207 437.403 531.531 437.765 526.883C456.102 517.906 503.594 491.671 527.706 450.54L464.694 484.182C457.513 498.49 448.537 511.868 437.972 524.006V524.006ZM417.094 426.841L417.25 424.505L418.848 426.453L418.692 428.789L417.094 426.841Z" fill="#E6E6E6"/>
<path d="M501.48 261.21L502.037 260.952C488.126 254.069 473.261 255.164 459.162 262.757L501.519 316.468C502.993 284.01 501.502 261.532 501.48 261.21Z" fill="#E6E6E6"/>
<path d="M477.736 454.165C474.343 463.495 470.434 472.637 466.025 481.55L528.439 448.227L528.523 449.114C533.102 441.152 536.63 432.654 539.023 423.824C539.948 420.35 540.784 416.869 541.533 413.38L478.785 451.22C478.436 452.203 478.092 453.193 477.736 454.165Z" fill="#E6E6E6"/>
<path d="M501.404 318.886L458.076 263.942L458.452 263.138C447.868 269.013 437.736 278.555 428.787 291.129L497.614 362.942C499.581 347.204 500.746 332.249 501.404 318.886Z" fill="#E6E6E6"/>
<path d="M275.878 329.664C263.848 329.494 252.943 331.636 243.895 336.363C243.425 336.609 242.967 336.865 242.51 337.123C245.802 338.908 265.048 349.508 290.227 366.7L275.878 329.664Z" fill="#E6E6E6"/>
<path d="M329.348 397.059L229.663 415.617L229.118 414.882C233.507 424.74 238.903 434.139 245.224 442.935L355.598 419.765C346.682 411.483 337.792 403.88 329.348 397.059Z" fill="#E6E6E6"/>
<path d="M363.503 427.285C361.368 425.203 359.228 423.158 357.085 421.151L246.303 444.407L245.749 443.675C247.974 446.777 250.343 449.876 252.855 452.971L252.295 452.243L363.503 427.285Z" fill="#E6E6E6"/>
<path d="M412.666 486.853C406.791 477.497 400.348 468.495 393.371 459.894L284.897 483.419C293.12 489.135 301.725 494.305 310.655 498.896L310.092 498.068L412.666 486.853Z" fill="#E6E6E6"/>
<path d="M241.859 338.049L241.934 337.451C228.542 345.256 221.53 358.121 220.541 373.831L289.608 367.598C262.362 349.004 242.149 338.203 241.859 338.049Z" fill="#E6E6E6"/>
<path d="M291.635 368.987L220.984 375.362L220.491 374.621C219.898 386.508 222.716 399.985 228.786 414.108L327.659 395.702C315.118 385.653 302.825 376.685 291.635 368.987Z" fill="#E6E6E6"/>
<path d="M392.145 458.386C383.624 448.014 374.538 438.097 364.926 428.681L253.444 453.7C256.867 457.879 260.546 462.032 264.482 466.161C270.163 472.02 276.378 477.36 283.051 482.114L392.144 458.455L392.145 458.386Z" fill="#E6E6E6"/>
<path d="M316.217 189.449C324.521 200.279 333.479 212.672 342.32 226.18L343.582 163.875L344.279 164.311C334.848 157.564 324.493 152.151 313.517 148.231L314.214 148.609L316.217 189.449Z" fill="#63FFE3"/>
<path d="M312.817 147.992C301.43 144.194 290.382 142.934 280.283 144.695C279.758 144.787 279.241 144.893 278.726 145C281.292 147.692 296.245 163.591 314.757 187.551L312.817 147.992Z" fill="#63FFE3"/>
<path d="M379.445 294.279C380.806 297.458 382.101 300.615 383.329 303.75L406.698 236.274L407.37 236.901C404.61 231.825 401.685 226.89 398.594 222.096L379.763 294.554L379.445 294.279Z" fill="#63FFE3"/>
<path d="M365.799 265.824L378.011 195.08L378.704 195.623C368.749 184.088 357.431 173.746 344.987 164.814L343.7 228.306C351.928 241.002 359.294 253.509 365.799 265.824Z" fill="#63FFE3"/>
<path d="M241.697 215.766L241.411 214.903C242.469 225.604 244.63 236.174 247.861 246.451L360.154 257.777C354.292 247.206 348.241 237.288 342.366 228.249L241.697 215.766Z" fill="#63FFE3"/>
<path d="M248.422 248.176L248.126 247.313C249.262 250.935 250.536 254.598 251.947 258.302L251.644 257.44L365.295 267.319C363.922 264.692 362.534 262.101 361.13 259.544L248.422 248.176Z" fill="#63FFE3"/>
<path d="M378.64 292.439L397.314 220.586L397.998 221.175C392.363 212.509 386.137 204.224 379.361 196.378L366.984 268.078C371.274 276.314 375.159 284.435 378.64 292.439Z" fill="#63FFE3"/>
<path d="M383.393 307.359L272.795 296.944C278.809 304.865 285.359 312.384 292.4 319.449L292.126 318.491L393.222 338.829C390.592 328.156 387.309 317.647 383.393 307.359V307.359Z" fill="#63FFE3"/>
<path d="M277.814 145.683L278.074 145.137C262.871 148.512 252.136 158.628 246.23 173.269L313.885 188.218C293.85 162.299 278.041 145.918 277.814 145.683Z" fill="#63FFE3"/>
<path d="M385.378 309.105C388.85 318.406 391.801 327.886 394.219 337.501L420.556 272.907L421.199 273.538C419.532 264.549 416.707 255.804 412.791 247.51C411.238 244.258 409.611 241.055 407.912 237.901L384.264 306.182C384.638 307.157 385.017 308.134 385.378 309.105Z" fill="#63FFE3"/>
<path d="M341.189 226.448C332.439 213.1 323.582 200.855 315.373 190.152L246.166 174.86L245.932 174.006C241.611 185.132 240.032 198.8 241.34 214.067L341.189 226.448Z" fill="#63FFE3"/>
<path d="M271.452 295.145L382.682 305.619L382.704 305.554C377.879 293.114 372.372 280.937 366.207 269.076L252.276 259.172C254.211 264.181 256.397 269.244 258.835 274.36C262.386 281.649 266.609 288.606 271.452 295.145V295.145Z" fill="#63FFE3"/>
<path d="M540.269 316.242L540.521 317.012C537.659 305.934 533.213 295.306 527.317 285.441L527.606 286.167L502.513 318.87C501.845 332.391 500.66 347.524 498.66 363.441L540.269 316.242Z" fill="#63FFE3"/>
<path d="M526.934 284.82C520.641 274.793 512.953 266.932 504.026 261.989C503.562 261.732 503.095 261.491 502.628 261.252C502.849 264.926 503.996 286.498 502.626 316.498L526.934 284.82Z" fill="#63FFE3"/>
<path d="M482.836 439.046C481.812 442.343 480.75 445.582 479.651 448.763L541.659 411.369L541.768 412.271C542.953 406.641 543.919 401.016 544.665 395.395L482.903 439.456L482.836 439.046Z" fill="#63FFE3"/>
<path d="M490.886 408.619L546.433 361.75L546.613 362.601C546.469 347.507 544.497 332.482 540.739 317.842L498.336 365.94C496.392 380.85 493.908 395.077 490.886 408.619Z" fill="#63FFE3"/>
<path d="M546.626 363.592L490.328 411.094C488.26 420.113 485.957 428.791 483.417 437.127L544.664 393.434L544.807 394.314C546.119 384.125 546.727 373.861 546.626 363.592Z" fill="#63FFE3"/>
<path d="M437.972 524.006C438.022 523.265 438.069 522.503 438.114 521.722C448.148 510.033 456.704 497.204 463.599 483.513L429.598 442.079C429.152 440.665 428.686 439.254 428.199 437.848L464.39 481.951C469.326 472.091 473.652 461.949 477.346 451.582L405.767 381.268C405.991 380.716 406.217 380.15 406.446 379.574L477.933 449.799L477.993 449.763C482.39 437.172 486.091 424.358 489.079 411.378L418.09 342.66C418.24 342.022 418.386 341.381 418.531 340.736L489.523 409.456C490.178 406.577 490.799 403.715 491.386 400.871L420.605 330.391C420.723 329.718 420.838 329.043 420.95 328.366L491.787 398.901C494.167 387.103 495.975 375.689 497.346 365.063L427.953 292.66L428.296 291.817C426.652 294.159 425.055 296.615 423.497 299.16C423.539 291.114 422.871 283.079 421.5 275.145L394.911 340.358C397.059 349.349 398.599 358.47 399.519 367.659C399.358 369.214 399.213 370.777 399.097 372.356L399.971 373.214C400.026 374.052 400.078 374.888 400.12 375.721L398.958 374.579C398.903 375.494 398.862 376.416 398.821 377.338C398.277 364.935 396.54 352.61 393.631 340.526L293.275 320.336C298.33 325.411 303.629 330.342 309.043 335.098C298.533 331.877 287.627 330.054 276.62 329.68L277.402 329.829L292.215 368.063C303.536 375.853 315.972 384.932 328.65 395.105L310.413 336.296C311.089 336.883 311.766 337.469 312.445 338.051L330.635 396.71C342.473 406.298 353.431 415.965 363.51 425.712L355.151 370.506C355.737 370.906 356.32 371.302 356.9 371.695L365.35 427.497C372.033 434.033 378.295 440.582 384.135 447.142L380.084 386.618C380.659 386.969 381.223 387.313 381.777 387.65L385.872 448.813L385.482 448.649C387.781 451.26 390.01 453.871 392.169 456.482L392.952 394.252C393.556 394.597 394.113 394.915 394.625 395.205L393.828 458.512C394.491 459.326 395.161 460.141 395.81 460.955C402.052 468.752 407.856 476.875 413.195 485.288L413.572 479.626C414.038 481.305 414.504 482.955 414.97 484.576L414.755 487.796C415.534 489.062 416.289 490.327 417.034 491.591C417.615 493.52 418.189 495.395 418.758 497.216C417.109 494.229 415.387 491.271 413.592 488.343L311.768 499.476C365.307 527.016 431.744 540.072 435.978 540.886C434.974 536.542 433.752 532.237 432.347 527.972C432.713 527.598 433.074 527.219 433.435 526.841C433.608 527.35 433.787 527.86 433.954 528.369C433.765 528.566 433.579 528.769 433.389 528.966C433.599 528.869 433.818 528.767 434.047 528.661C435.026 531.659 435.902 534.648 436.678 537.627C436.988 535.207 437.403 531.531 437.765 526.883C456.102 517.906 503.594 491.671 527.706 450.54L464.694 484.182C457.513 498.49 448.537 511.868 437.972 524.006V524.006ZM417.094 426.841L417.25 424.505L418.848 426.453L418.692 428.789L417.094 426.841Z" fill="#63FFE3"/>
<path d="M501.48 261.21L502.037 260.952C488.126 254.069 473.261 255.164 459.162 262.757L501.519 316.468C502.993 284.01 501.502 261.532 501.48 261.21Z" fill="#63FFE3"/>
<path d="M477.736 454.165C474.343 463.495 470.434 472.637 466.025 481.55L528.439 448.227L528.523 449.114C533.102 441.152 536.63 432.654 539.023 423.824C539.948 420.35 540.784 416.869 541.533 413.38L478.785 451.22C478.436 452.203 478.092 453.193 477.736 454.165Z" fill="#63FFE3"/>
<path d="M501.404 318.886L458.076 263.942L458.452 263.138C447.868 269.013 437.736 278.555 428.787 291.129L497.614 362.942C499.581 347.204 500.746 332.249 501.404 318.886Z" fill="#63FFE3"/>
<path d="M275.878 329.664C263.848 329.494 252.943 331.636 243.895 336.363C243.425 336.609 242.967 336.865 242.51 337.123C245.802 338.908 265.048 349.508 290.227 366.7L275.878 329.664Z" fill="#63FFE3"/>
<path d="M329.348 397.059L229.663 415.617L229.118 414.882C233.507 424.74 238.903 434.139 245.224 442.935L355.598 419.765C346.682 411.483 337.792 403.88 329.348 397.059Z" fill="#63FFE3"/>
<path d="M363.503 427.285C361.368 425.203 359.228 423.158 357.085 421.151L246.303 444.407L245.749 443.675C247.974 446.777 250.343 449.876 252.855 452.971L252.295 452.243L363.503 427.285Z" fill="#63FFE3"/>
<path d="M412.666 486.853C406.791 477.497 400.348 468.495 393.371 459.894L284.897 483.419C293.12 489.135 301.725 494.305 310.655 498.896L310.092 498.068L412.666 486.853Z" fill="#63FFE3"/>
<path d="M241.859 338.049L241.934 337.451C228.542 345.256 221.53 358.121 220.541 373.831L289.608 367.598C262.362 349.004 242.149 338.203 241.859 338.049Z" fill="#63FFE3"/>
<path d="M291.635 368.987L220.984 375.362L220.491 374.621C219.898 386.508 222.716 399.985 228.786 414.108L327.659 395.702C315.118 385.653 302.825 376.685 291.635 368.987Z" fill="#63FFE3"/>
<path d="M392.145 458.386C383.624 448.014 374.538 438.097 364.926 428.681L253.444 453.7C256.867 457.879 260.546 462.032 264.482 466.161C270.163 472.02 276.378 477.36 283.051 482.114L392.144 458.455L392.145 458.386Z" fill="#63FFE3"/>
<path d="M1037.35 174.645C1037.35 174.645 1021.01 220.131 1031.07 227.128C1041.12 234.126 997.123 291.275 997.123 291.275L944.324 277.279L973.238 229.461C973.238 229.461 977.009 181.643 977.009 174.645C977.009 167.647 1037.35 174.645 1037.35 174.645Z" fill="#FFB8B8"/>
<path opacity="0.1" d="M1037.35 174.645C1037.35 174.645 1021.01 220.131 1031.07 227.128C1041.12 234.126 997.123 291.275 997.123 291.275L944.324 277.279L973.238 229.461C973.238 229.461 977.009 181.643 977.009 174.645C977.009 167.647 1037.35 174.645 1037.35 174.645Z" fill="black"/>
<path d="M1064.78 498.875C1064.78 498.875 1069.55 557.19 1064.78 587.514C1060.01 617.837 1052.86 701.811 1052.86 701.811C1052.86 701.811 1052.86 860.427 1026.62 862.759C1000.38 865.092 981.296 867.424 978.911 858.094C976.525 848.764 990.837 844.099 983.681 839.433C976.525 834.768 974.14 818.44 983.681 799.779C993.223 781.119 983.681 592.179 983.681 592.179L938.36 711.141C938.36 711.141 933.59 809.11 928.819 823.105C924.049 837.101 933.59 862.759 916.893 865.092C900.196 867.424 881.113 853.429 871.572 848.764C862.031 844.098 885.884 844.099 881.113 841.766C876.342 839.433 862.031 832.436 866.801 830.103C871.572 827.77 876.342 715.806 876.342 715.806C876.342 715.806 889.462 476.716 906.159 467.385C922.856 458.055 933.59 474.126 933.59 474.126L1064.78 498.875Z" fill="#2F2E41"/>
<path d="M1021.85 854.683V873.344C1021.85 873.344 1043.31 924.069 1021.85 924.069C1000.38 924.069 983.681 929.326 983.681 922.328V859.348L1021.85 854.683Z" fill="#2F2E41"/>
<path d="M881.113 853.396V872.057C881.113 872.057 859.645 922.782 881.113 922.782C902.581 922.782 919.278 928.039 919.278 921.041V858.061L881.113 853.396Z" fill="#2F2E41"/>
<path d="M1003.96 208.468C1027.67 208.468 1046.89 189.67 1046.89 166.481C1046.89 143.292 1027.67 124.494 1003.96 124.494C980.244 124.494 961.021 143.292 961.021 166.481C961.021 189.67 980.244 208.468 1003.96 208.468Z" fill="#FFB8B8"/>
<path d="M1017.08 244.623C1017.08 244.623 1005.15 279.612 986.067 272.614L966.984 265.616L933.59 489.545C933.59 489.545 959.828 526.866 997.993 503.54C1036.16 480.214 1017.08 244.623 1017.08 244.623Z" fill="#D0CDE1"/>
<path d="M983.681 237.625L972.947 215.465C972.947 215.465 909.737 244.623 900.195 253.953C890.654 263.284 890.654 277.279 890.654 277.279L907.351 335.594C907.351 335.594 902.581 463.886 902.581 468.551C902.581 473.217 885.884 498.875 897.81 489.545C909.737 480.214 912.122 470.884 921.663 484.88C931.204 498.875 952.672 515.203 952.672 515.203L983.681 237.625Z" fill="#D0CDE1"/>
<path d="M900.195 405.572L907.351 470.884C907.351 470.884 950.287 508.206 940.746 510.538C931.205 512.871 926.434 503.54 926.434 503.54C926.434 503.54 909.737 519.868 900.196 510.538C890.654 501.208 866.801 412.569 866.801 412.569L900.195 405.572Z" fill="#FFB8B8"/>
<path d="M1003.04 107.142C1012.56 106.809 1022.75 106.645 1030.77 111.661C1034.46 114.178 1037.7 117.278 1040.35 120.834C1048.17 130.497 1054.92 142.655 1052.02 154.643L1048.65 153.357C1048.65 156.557 1049.38 159.717 1050.78 162.609C1050.3 161.259 1048.71 163.441 1049.14 164.807L1052.85 176.724C1046.75 174.535 1039.15 178.967 1038.22 185.262C1037.8 171.42 1036.33 155.548 1024.85 147.443C1019.06 143.356 1011.73 142.108 1004.68 141C998.173 139.978 991.354 139.003 985.124 141.097C978.894 143.192 973.588 149.422 975.001 155.715C972.128 154.747 968.915 156.705 967.495 159.332C966.076 161.959 966.001 165.058 965.958 168.029C962.896 170.145 959.411 165.943 958.163 162.485C955.234 154.368 952.63 145.728 954.208 137.261C955.786 128.793 962.842 120.701 971.644 120.672C970.576 119.524 970.006 118.015 970.055 116.464L977.309 115.865C975.467 115.61 973.774 114.737 972.518 113.395C975.431 116.529 998.332 107.307 1003.04 107.142Z" fill="#2F2E41"/>
<path d="M1005.15 230.627C1005.15 230.627 1024.57 212.019 1031.56 213.159C1038.54 214.299 1048.08 230.627 1048.08 230.627C1048.08 230.627 1105.33 249.288 1102.95 267.949C1100.56 286.609 1074.32 377.58 1074.32 377.58C1074.32 377.58 1052.86 487.212 1071.94 498.875C1091.02 510.538 981.296 540.862 978.911 526.866C976.525 512.871 971.755 372.915 978.911 351.922C986.067 330.929 1005.15 230.627 1005.15 230.627Z" fill="#D0CDE1"/>
<path d="M921.663 267.949H892.169C892.169 267.949 871.572 356.587 869.186 365.918C866.801 375.248 862.03 419.567 864.416 419.567C866.801 419.567 914.507 410.237 914.507 417.235L921.663 267.949Z" fill="#D0CDE1"/>
<path d="M71.1193 317.372C83.8478 317.372 94.1663 307.281 94.1663 294.834C94.1663 282.387 83.8478 272.297 71.1193 272.297C58.3908 272.297 48.0723 282.387 48.0723 294.834C48.0723 307.281 58.3908 317.372 71.1193 317.372Z" fill="#3F3D56"/>
<path d="M71.1193 404.303C83.8478 404.303 94.1663 394.212 94.1663 381.765C94.1663 369.318 83.8478 359.227 71.1193 359.227C58.3908 359.227 48.0723 369.318 48.0723 381.765C48.0723 394.212 58.3908 404.303 71.1193 404.303Z" fill="#63FFE3"/>
<path d="M71.1193 491.234C83.8478 491.234 94.1663 481.143 94.1663 468.696C94.1663 456.249 83.8478 446.158 71.1193 446.158C58.3908 446.158 48.0723 456.249 48.0723 468.696C48.0723 481.143 58.3908 491.234 71.1193 491.234Z" fill="#3F3D56"/>
<path d="M71.1193 578.164C83.8478 578.164 94.1663 568.074 94.1663 555.627C94.1663 543.18 83.8478 533.089 71.1193 533.089C58.3908 533.089 48.0723 543.18 48.0723 555.627C48.0723 568.074 58.3908 578.164 71.1193 578.164Z" fill="#3F3D56"/>
<path d="M71.1193 665.095C83.8478 665.095 94.1663 655.005 94.1663 642.558C94.1663 630.11 83.8478 620.02 71.1193 620.02C58.3908 620.02 48.0723 630.11 48.0723 642.558C48.0723 655.005 58.3908 665.095 71.1193 665.095Z" fill="#3F3D56"/>
<path d="M1139 923.492H68.064V926H1139V923.492Z" fill="#3F3D56"/>
<path d="M69.5389 303.866L58.5717 289.567L61.1689 287.662L70.1032 299.311L105.28 271.166L107.336 273.624L69.5389 303.866Z" fill="#63FFE3"/>
<path d="M212.694 377.472L132.578 378.546L212.694 410.464V924.815H1009.46V377.472H212.694Z" fill="#3F3D56"/>
<path d="M107.336 316.299H36V318.445H107.336V316.299Z" fill="#3F3D56"/>
<path d="M107.336 403.229H36V405.376H107.336V403.229Z" fill="#3F3D56"/>
<path d="M107.336 490.16H36V492.307H107.336V490.16Z" fill="#3F3D56"/>
<path d="M107.336 577.091H36V579.238H107.336V577.091Z" fill="#3F3D56"/>
<path d="M107.336 664.022H36V666.168H107.336V664.022Z" fill="#3F3D56"/>
<path d="M71.1192 392.497C77.1804 392.497 82.094 387.692 82.094 381.765C82.094 375.838 77.1804 371.033 71.1192 371.033C65.058 371.033 60.1445 375.838 60.1445 381.765C60.1445 387.692 65.058 392.497 71.1192 392.497Z" fill="#F2F2F2"/>
<path d="M861.302 406.449H360.853V447.232H861.302V406.449Z" fill="white"/>
<path d="M972.147 841.103H823.988V890.471H972.147V841.103Z" fill="#63FFE3"/>
<path d="M622.052 508.405H250.008V804.614H622.052V508.405Z" fill="white"/>
<path d="M250.701 507.573L249.315 509.237L621.359 805.446L622.745 803.782L250.701 507.573Z" fill="#F2F2F2"/>
<path d="M621.353 507.565L249.322 803.79L250.708 805.454L622.739 509.229L621.353 507.565Z" fill="#F2F2F2"/>
<path d="M973.245 534.162H705.461V541.675H973.245V534.162Z" fill="white"/>
<path d="M973.245 557.773H705.461V565.286H973.245V557.773Z" fill="white"/>
<path d="M973.245 581.384H705.461V588.897H973.245V581.384Z" fill="white"/>
<path d="M973.245 604.995H705.461V612.507H973.245V604.995Z" fill="white"/>
<path d="M973.245 628.606H705.461V636.118H973.245V628.606Z" fill="white"/>
<path d="M973.245 652.217H705.461V659.729H973.245V652.217Z" fill="white"/>
<path d="M973.245 675.827H705.461V683.34H973.245V675.827Z" fill="white"/>
<path d="M973.245 699.438H705.461V706.951H973.245V699.438Z" fill="white"/>
<path d="M973.245 723.049H705.461V730.562H973.245V723.049Z" fill="white"/>
<path d="M973.245 746.66H705.461V754.173H973.245V746.66Z" fill="white"/>
<path d="M973.245 770.271H705.461V777.783H973.245V770.271Z" fill="white"/>
<path d="M973.245 793.882H705.461V801.394H973.245V793.882Z" fill="white"/>
<path d="M1081.48 426.565L1048.08 440.56C1048.08 440.56 983.681 449.891 983.681 424.232C983.681 398.574 1048.08 412.569 1048.08 412.569L1069.55 405.857L1081.48 426.565Z" fill="#FFB8B8"/>
<path d="M1074.32 253.953L1102.95 260.951L1124.41 384.578C1124.41 384.578 1131.57 417.235 1119.64 419.567C1107.72 421.9 1074.32 440.56 1074.32 440.56C1074.32 440.56 1069.55 405.572 1060.01 405.572L1083.86 386.911L1069.55 305.27L1074.32 253.953Z" fill="#D0CDE1"/>
<defs>
<linearGradient id="paint0_linear" x1="1371.65" y1="15.8436" x2="458.22" y2="905.984" gradientUnits="userSpaceOnUse">
<stop stop-color="#00F0FF"/>
<stop offset="1" stop-color="#D4FF8D"/>
</linearGradient>
</defs>
</svg>
