<svg width="310" height="282" viewBox="0 0 310 282" fill="none" xmlns="http://www.w3.org/2000/svg">
<g clip-path="url(#clip0)">
<path d="M233.541 2.19266C246.271 -4.4085 256.928 10.9962 265.6 19.5873C265.6 19.5873 272.863 26.3613 278.168 26.4633C286.007 26.6134 294.11 26.707 302.216 24.3066C304.242 24.3066 307.282 25.5068 308.295 26.707C312.348 32.708 308.295 41.1095 305.255 45.9103C295.123 59.1126 279.926 60.3129 266.754 66.3139C259.662 69.9145 252.57 75.9156 250.543 84.3171C246.49 103.52 258.649 116.723 267.767 131.125C283.978 157.53 270.807 189.936 249.53 204.338C247.504 205.538 247.504 209.139 245.477 210.339C237.372 216.34 236.359 225.942 235.345 235.544C234.332 241.545 236.359 247.546 240.411 252.346C245.477 258.348 253.583 258.348 258.649 264.349C257.635 270.35 253.583 271.55 249.53 272.75C241.424 272.75 233.319 275.15 225.213 273.95C220.148 272.75 216.095 271.55 215.082 264.349C213.055 251.146 217.108 237.944 211.029 225.942C209.003 219.941 200.897 222.341 195.831 223.541C174.554 231.943 154.29 236.744 132 233.143C114.776 229.542 94.5124 234.343 87.4201 254.747C85.3937 261.948 92.486 263.148 96.5388 264.349C108.697 265.549 120.855 254.747 132 264.349C133.013 265.549 134.027 267.949 134.027 269.149C133.013 275.15 127.948 277.551 122.882 277.551C111.737 277.551 100.592 270.35 89.4464 276.351C86.4069 277.551 83.3673 273.95 80.3278 275.15C65.13 283.552 49.9322 282.352 33.7212 281.151C28.6552 279.951 23.5893 277.551 18.5234 275.15C2.31236 263.148 -3.76676 236.744 2.31237 216.34C3.32555 213.94 4.33874 210.339 5.35193 207.939C37.7739 161.13 85.3937 144.328 129.974 123.924C145.172 116.723 161.383 113.122 175.567 103.52C184.686 97.5194 189.752 85.5173 191.778 72.315C193.805 56.7122 193.805 41.1095 197.349 26.9782L197.598 24.6102" fill="white"/>
<path d="M233.541 2.19266C246.271 -4.4085 256.928 10.9962 265.6 19.5873C265.6 19.5873 272.863 26.3613 278.168 26.4633C286.007 26.6134 294.11 26.707 302.216 24.3066C304.242 24.3066 307.282 25.5068 308.295 26.707C312.348 32.708 308.295 41.1095 305.255 45.9103C295.123 59.1126 279.926 60.3129 266.754 66.3139C259.662 69.9145 252.57 75.9156 250.543 84.3171C246.49 103.52 258.649 116.723 267.767 131.125C283.978 157.53 270.807 189.936 249.53 204.338C247.504 205.538 247.504 209.139 245.477 210.339C237.372 216.34 236.359 225.942 235.345 235.544C234.332 241.545 236.359 247.546 240.411 252.346C245.477 258.348 253.583 258.348 258.649 264.349C257.635 270.35 253.583 271.55 249.53 272.75C241.424 272.75 233.319 275.15 225.213 273.95C220.148 272.75 216.095 271.55 215.082 264.349C213.055 251.146 217.108 237.944 211.029 225.942C209.003 219.941 200.897 222.341 195.831 223.541C174.554 231.943 154.29 236.744 132 233.143C114.776 229.542 94.5124 234.343 87.4201 254.747C85.3937 261.948 92.486 263.148 96.5388 264.349C108.697 265.549 120.855 254.747 132 264.349C133.013 265.549 134.027 267.949 134.027 269.149C133.013 275.15 127.948 277.551 122.882 277.551C111.737 277.551 100.592 270.35 89.4464 276.351C86.4069 277.551 83.3673 273.95 80.3278 275.15C65.13 283.552 49.9322 282.352 33.7212 281.151C28.6552 279.951 23.5893 277.551 18.5234 275.15C2.31236 263.148 -3.76676 236.744 2.31237 216.34C3.32555 213.94 4.33874 210.339 5.35193 207.939C37.7739 161.13 85.3937 144.328 129.974 123.924C145.172 116.723 161.383 113.122 175.567 103.52C184.686 97.5194 189.752 85.5173 191.778 72.315C193.805 56.7122 193.805 41.1095 197.349 26.9782L197.598 24.6102" fill="url(#paint0_linear)"/>
<path d="M233.541 2.19266C246.271 -4.4085 256.928 10.9962 265.6 19.5873C265.6 19.5873 272.863 26.3613 278.168 26.4633C286.007 26.6134 294.11 26.707 302.216 24.3066C304.242 24.3066 307.282 25.5068 308.295 26.707C312.348 32.708 308.295 41.1095 305.255 45.9103C295.123 59.1126 279.926 60.3129 266.754 66.3139C259.662 69.9145 252.57 75.9156 250.543 84.3171C246.49 103.52 258.649 116.723 267.767 131.125C283.978 157.53 270.807 189.936 249.53 204.338C247.504 205.538 247.504 209.139 245.477 210.339C237.372 216.34 236.359 225.942 235.345 235.544C234.332 241.545 236.359 247.546 240.411 252.346C245.477 258.348 253.583 258.348 258.649 264.349C257.635 270.35 253.583 271.55 249.53 272.75C241.424 272.75 233.319 275.15 225.213 273.95C220.148 272.75 216.095 271.55 215.082 264.349C213.055 251.146 217.108 237.944 211.029 225.942C209.003 219.941 200.897 222.341 195.831 223.541C174.554 231.943 154.29 236.744 132 233.143C114.776 229.542 94.5124 234.343 87.4201 254.747C85.3937 261.948 92.486 263.148 96.5388 264.349C108.697 265.549 120.855 254.747 132 264.349C133.013 265.549 134.027 267.949 134.027 269.149C133.013 275.15 127.948 277.551 122.882 277.551C111.737 277.551 100.592 270.35 89.4464 276.351C86.4069 277.551 83.3673 273.95 80.3278 275.15C65.13 283.552 49.9322 282.352 33.7212 281.151C28.6552 279.951 23.5893 277.551 18.5234 275.15C2.31236 263.148 -3.76676 236.744 2.31237 216.34C3.32555 213.94 4.33874 210.339 5.35193 207.939C37.7739 161.13 85.3937 144.328 129.974 123.924C145.172 116.723 161.383 113.122 175.567 103.52C184.686 97.5194 189.752 85.5173 191.778 72.315C193.805 56.7122 193.805 41.1095 197.349 26.9782L197.598 24.6102" stroke="url(#paint1_linear)" stroke-miterlimit="10"/>
<path d="M197.046 27.5412L197.046 27.5411C196.464 26.3009 195.974 25.2071 195.583 24.3054L195.548 24.2268L195.492 24.1664C195.492 24.1665 195.492 24.166 195.492 24.1656C195.491 24.1654 195.491 24.1656 195.491 24.1652L195.48 24.1524C195.469 24.1391 195.451 24.1168 195.428 24.0858C195.381 24.0237 195.315 23.9276 195.244 23.8008C195.103 23.5467 194.948 23.1757 194.896 22.7111C194.796 21.8189 195.063 20.4528 196.86 18.7925L196.904 18.7676L197.177 18.6128C197.417 18.4771 197.769 18.2782 198.218 18.025C199.116 17.5186 200.401 16.7953 201.95 15.9278C205.048 14.1927 209.202 11.8811 213.427 9.57459C217.652 7.26756 221.944 4.96753 225.318 3.25462C227.007 2.39774 228.459 1.6908 229.557 1.20388C230.107 0.960064 230.56 0.7749 230.905 0.653975C231.078 0.593422 231.216 0.551649 231.322 0.526509C231.415 0.504103 231.46 0.500787 231.469 0.500075C231.471 0.499912 231.472 0.499885 231.47 0.499797C232.387 0.562153 232.997 1.11651 233.398 1.71575C233.597 2.01388 233.736 2.31062 233.824 2.53387C233.868 2.64484 233.899 2.73591 233.919 2.79758C233.927 2.82461 233.934 2.84588 233.938 2.86059L233.938 2.86394L233.953 2.96919C233.966 3.06226 233.985 3.2007 234.01 3.38182C234.059 3.74405 234.13 4.27695 234.219 4.95893C234.317 5.70338 234.435 6.62502 234.566 7.6964L234.62 8.13548H234.626C234.634 8.19343 234.642 8.25701 234.652 8.32609C234.706 8.7325 234.783 9.32924 234.879 10.0896C235.069 11.6103 235.329 13.7853 235.607 16.4007C236.163 21.6326 236.79 28.6226 237.075 35.6624C237.36 42.7087 237.301 49.7783 236.494 55.1803C236.091 57.8846 235.504 60.1353 234.702 61.7488C233.896 63.368 232.925 64.2494 231.789 64.425L231.865 64.9191L231.789 64.425C227.829 65.0369 224.029 63.8103 220.442 61.3934C216.85 58.9734 213.502 55.3781 210.478 51.3171C204.43 43.1947 199.75 33.3104 197.046 27.5412Z" fill="black" stroke="black"/>
</g>
<defs>
<linearGradient id="paint0_linear" x1="-54.5" y1="327.5" x2="335.5" y2="0.999998" gradientUnits="userSpaceOnUse">
<stop stop-color="#00FFF0"/>
<stop offset="1" stop-color="#8F00FF"/>
</linearGradient>
<linearGradient id="paint1_linear" x1="-305" y1="375" x2="557" y2="-77.5" gradientUnits="userSpaceOnUse">
<stop offset="0.260417" stop-color="#00FFF0"/>
<stop offset="0.890625" stop-color="#8F00FF"/>
</linearGradient>
<clipPath id="clip0">
<rect width="310" height="282" fill="white"/>
</clipPath>
</defs>
</svg>
