<svg width="2365" height="2202" viewBox="0 0 2365 2202" fill="none" xmlns="http://www.w3.org/2000/svg">
<path d="M981 260.5C981 149.215 1071.21 59 1182.5 59C1293.79 59 1384 149.215 1384 260.5V1942.5C1384 2053.79 1293.79 2144 1182.5 2144C1071.21 2144 981 2053.79 981 1942.5V260.5Z" fill="white"/>
<path d="M2270.4 1099.84L2270.4 1099.84C2270.27 1010.18 2197.49 937.604 2107.83 937.731L256.345 940.372C166.685 940.499 94.1058 1013.29 94.2337 1102.95C94.3615 1192.61 167.148 1265.19 256.808 1265.06L2108.29 1262.42C2197.95 1262.29 2270.53 1189.5 2270.4 1099.84Z" fill="white"/>
</svg>
