<svg width="2257" height="2154" viewBox="0 0 2257 2154" fill="none" xmlns="http://www.w3.org/2000/svg">
<path d="M50.0838 1087.7C52.8838 1194.5 117.025 1231.56 193.084 1237.7H840.5C927.084 1237.7 927.084 1237.7 927.084 1321V1944.7C927.084 2031.56 1008.08 2103.2 1126.58 2103.2C1245.08 2103.2 1307.08 2041.2 1317.08 1944.7C1325.14 1866.99 1320.22 1455.01 1318 1297.5C1317.08 1236.2 1317.5 1236.2 1385.5 1236.2H2062.08C2166.52 1236.2 2206.02 1160.06 2206.02 1092.56C2206.02 1025.06 2151.5 937.7 2062.08 937.7H1355C1317.08 937.7 1317.08 938.2 1317.08 895V223.2C1317.08 127.564 1233.48 45.4003 1117.08 50.2003C1000.68 55.0003 927.084 127.063 927.084 223.2V869C927.084 937 927.084 937.7 855 937.7H193.084C115.023 937.7 47.2838 980.901 50.0838 1087.7Z" fill="white" stroke="#727272" stroke-width="100"/>
</svg>
