<svg width="5977" height="5455" viewBox="0 0 5977 5455" fill="none" xmlns="http://www.w3.org/2000/svg">
<path d="M1488.81 742.057H1485.12V745.08H1489.41V746H1483.99V737.469H1489.35V738.395H1485.12V741.137H1488.81V742.057Z" fill="black"/>
<path d="M336 1040C336 595.411 696.411 235 1141 235H4967C5411.59 235 5772 595.411 5772 1040V4442C5772 4886.59 5411.59 5247 4967 5247H1141C696.411 5247 336 4886.59 336 4442V1040Z" fill="white" stroke="#C4C4C4" stroke-width="120"/>
<path d="M278 1399.1H5823.5" stroke="#C4C4C4" stroke-width="120"/>
<path d="M336 1459H1600V1459.29V1462.11V1464.92V1467.73V1470.54V1473.34V1476.13V1478.92V1481.71V1484.49V1487.27V1490.05V1492.82V1495.58V1498.34V1501.1V1503.85V1506.6V1509.34V1512.08V1514.81V1517.55V1520.27V1522.99V1525.71V1528.43V1531.14V1533.84V1536.55V1539.24V1541.94V1544.63V1547.31V1549.99V1552.67V1555.35V1558.02V1560.68V1563.34V1566V1568.66V1571.31V1573.95V1576.6V1579.24V1581.87V1584.5V1587.13V1589.76V1592.38V1595V1597.61V1600.22V1602.83V1605.43V1608.03V1610.62V1613.22V1615.8V1618.39V1620.97V1623.55V1626.13V1628.7V1631.26V1633.83V1636.39V1638.95V1641.5V1644.06V1646.6V1649.15V1651.69V1654.23V1656.77V1659.3V1661.83V1664.35V1666.88V1669.4V1671.91V1674.43V1676.94V1679.45V1681.95V1684.45V1686.95V1689.45V1691.94V1694.43V1696.92V1699.41V1701.89V1704.37V1706.84V1709.32V1711.79V1714.26V1716.72V1719.18V1721.64V1724.1V1726.56V1729.01V1731.46V1733.9V1736.35V1738.79V1741.23V1743.67V1746.1V1748.53V1750.96V1753.39V1755.81V1758.24V1760.66V1763.07V1765.49V1767.9V1770.31V1772.72V1775.13V1777.53V1779.94V1782.34V1784.73V1787.13V1789.52V1791.91V1794.3V1796.69V1799.07V1801.46V1803.84V1806.22V1808.59V1810.97V1813.34V1815.71V1818.08V1820.45V1822.82V1825.18V1827.54V1829.9V1832.26V1834.62V1836.97V1839.33V1841.68V1844.03V1846.38V1848.73V1851.07V1853.41V1855.76V1858.1V1860.44V1862.77V1865.11V1867.44V1869.78V1872.11V1874.44V1876.77V1879.1V1881.42V1883.75V1886.07V1888.39V1890.71V1893.03V1895.35V1897.67V1899.98V1902.3V1904.61V1906.93V1909.24V1911.55V1913.86V1916.16V1918.47V1920.78V1923.08V1925.39V1927.69V1929.99V1932.29V1934.59V1936.89V1939.19V1941.49V1943.79V1946.08V1948.38V1950.67V1952.97V1955.26V1957.55V1959.85V1962.14V1964.43V1966.72V1969.01V1971.3V1973.58V1975.87V1978.16V1980.44V1982.73V1985.02V1987.3V1989.59V1991.87V1994.15V1996.44V1998.72V2001V2003.29V2005.57V2007.85V2010.13V2012.41V2014.69V2016.98V2019.26V2021.54V2023.82V2026.1V2028.38V2030.66V2032.94V2035.22V2037.5V2039.78V2042.06V2044.34V2046.62V2048.9V2051.18V2053.46V2055.74V2058.02V2060.31V2062.59V2064.87V2067.15V2069.43V2071.71V2074V2076.28V2078.56V2080.85V2083.13V2085.41V2087.7V2089.98V2092.27V2094.56V2096.84V2099.13V2101.42V2103.7V2105.99V2108.28V2110.57V2112.86V2115.15V2117.45V2119.74V2122.03V2124.33V2126.62V2128.92V2131.21V2133.51V2135.81V2138.11V2140.41V2142.71V2145.01V2147.31V2149.61V2151.92V2154.22V2156.53V2158.84V2161.14V2163.45V2165.76V2168.07V2170.39V2172.7V2175.02V2177.33V2179.65V2181.97V2184.29V2186.61V2188.93V2191.25V2193.58V2195.9V2198.23V2200.56V2202.89V2205.22V2207.56V2209.89V2212.23V2214.56V2216.9V2219.24V2221.59V2223.93V2226.27V2228.62V2230.97V2233.32V2235.67V2238.03V2240.38V2242.74V2245.1V2247.46V2249.82V2252.18V2254.55V2256.92V2259.29V2261.66V2264.03V2266.41V2268.78V2271.16V2273.54V2275.93V2278.31V2280.7V2283.09V2285.48V2287.87V2290.27V2292.66V2295.06V2297.47V2299.87V2302.28V2304.69V2307.1V2309.51V2311.93V2314.34V2316.76V2319.19V2321.61V2324.04V2326.47V2328.9V2331.33V2333.77V2336.21V2338.65V2341.1V2343.54V2345.99V2348.44V2350.9V2353.36V2355.82V2358.28V2360.74V2363.21V2365.68V2368.16V2370.63V2373.11V2375.59V2378.08V2380.57V2383.06V2385.55V2388.05V2390.55V2393.05V2395.55V2398.06V2400.57V2403.09V2405.6V2408.12V2410.65V2413.17V2415.7V2418.23V2420.77V2423.31V2425.85V2428.4V2430.94V2433.5V2436.05V2438.61V2441.17V2443.74V2446.3V2448.88V2451.45V2454.03V2456.61V2459.2V2461.78V2464.38V2466.97V2469.57V2472.17V2474.78V2477.39V2480V2482.62V2485.24V2487.87V2490.5V2493.13V2495.76V2498.4V2501.05V2503.69V2506.34V2509V2511.66V2514.32V2516.98V2519.65V2522.33V2525.01V2527.69V2530.37V2533.06V2535.76V2538.45V2541.16V2543.86V2546.57V2549.29V2552.01V2554.73V2557.45V2560.19V2562.92V2565.66V2568.4V2571.15V2573.9V2576.66V2579.42V2582.18V2584.95V2587.73V2590.51V2593.29V2596.08V2598.87V2601.66V2604.46V2607.27V2610.08V2612.89V2615.71V2616H336V1459Z" fill="white" stroke="#C4C4C4" stroke-width="120"/>
<path d="M4491 1459H5758V1459.29V1462.11V1464.92V1467.73V1470.54V1473.34V1476.13V1478.92V1481.71V1484.49V1487.27V1490.05V1492.82V1495.58V1498.34V1501.1V1503.85V1506.6V1509.34V1512.08V1514.81V1517.55V1520.27V1522.99V1525.71V1528.43V1531.14V1533.84V1536.55V1539.24V1541.94V1544.63V1547.31V1549.99V1552.67V1555.35V1558.02V1560.68V1563.34V1566V1568.66V1571.31V1573.95V1576.6V1579.24V1581.87V1584.5V1587.13V1589.76V1592.38V1595V1597.61V1600.22V1602.83V1605.43V1608.03V1610.62V1613.22V1615.8V1618.39V1620.97V1623.55V1626.13V1628.7V1631.26V1633.83V1636.39V1638.95V1641.5V1644.06V1646.6V1649.15V1651.69V1654.23V1656.77V1659.3V1661.83V1664.35V1666.88V1669.4V1671.91V1674.43V1676.94V1679.45V1681.95V1684.45V1686.95V1689.45V1691.94V1694.43V1696.92V1699.41V1701.89V1704.37V1706.84V1709.32V1711.79V1714.26V1716.72V1719.18V1721.64V1724.1V1726.56V1729.01V1731.46V1733.9V1736.35V1738.79V1741.23V1743.67V1746.1V1748.53V1750.96V1753.39V1755.81V1758.24V1760.66V1763.07V1765.49V1767.9V1770.31V1772.72V1775.13V1777.53V1779.94V1782.34V1784.73V1787.13V1789.52V1791.91V1794.3V1796.69V1799.07V1801.46V1803.84V1806.22V1808.59V1810.97V1813.34V1815.71V1818.08V1820.45V1822.82V1825.18V1827.54V1829.9V1832.26V1834.62V1836.97V1839.33V1841.68V1844.03V1846.38V1848.73V1851.07V1853.41V1855.76V1858.1V1860.44V1862.77V1865.11V1867.44V1869.78V1872.11V1874.44V1876.77V1879.1V1881.42V1883.75V1886.07V1888.39V1890.71V1893.03V1895.35V1897.67V1899.98V1902.3V1904.61V1906.93V1909.24V1911.55V1913.86V1916.16V1918.47V1920.78V1923.08V1925.39V1927.69V1929.99V1932.29V1934.59V1936.89V1939.19V1941.49V1943.79V1946.08V1948.38V1950.67V1952.97V1955.26V1957.55V1959.85V1962.14V1964.43V1966.72V1969.01V1971.3V1973.58V1975.87V1978.16V1980.44V1982.73V1985.02V1987.3V1989.59V1991.87V1994.15V1996.44V1998.72V2001V2003.29V2005.57V2007.85V2010.13V2012.41V2014.69V2016.98V2019.26V2021.54V2023.82V2026.1V2028.38V2030.66V2032.94V2035.22V2037.5V2039.78V2042.06V2044.34V2046.62V2048.9V2051.18V2053.46V2055.74V2058.02V2060.31V2062.59V2064.87V2067.15V2069.43V2071.71V2074V2076.28V2078.56V2080.85V2083.13V2085.41V2087.7V2089.98V2092.27V2094.56V2096.84V2099.13V2101.42V2103.7V2105.99V2108.28V2110.57V2112.86V2115.15V2117.45V2119.74V2122.03V2124.33V2126.62V2128.92V2131.21V2133.51V2135.81V2138.11V2140.41V2142.71V2145.01V2147.31V2149.61V2151.92V2154.22V2156.53V2158.84V2161.14V2163.45V2165.76V2168.07V2170.39V2172.7V2175.02V2177.33V2179.65V2181.97V2184.29V2186.61V2188.93V2191.25V2193.58V2195.9V2198.23V2200.56V2202.89V2205.22V2207.56V2209.89V2212.23V2214.56V2216.9V2219.24V2221.59V2223.93V2226.27V2228.62V2230.97V2233.32V2235.67V2238.03V2240.38V2242.74V2245.1V2247.46V2249.82V2252.18V2254.55V2256.92V2259.29V2261.66V2264.03V2266.41V2268.78V2271.16V2273.54V2275.93V2278.31V2280.7V2283.09V2285.48V2287.87V2290.27V2292.66V2295.06V2297.47V2299.87V2302.28V2304.69V2307.1V2309.51V2311.93V2314.34V2316.76V2319.19V2321.61V2324.04V2326.47V2328.9V2331.33V2333.77V2336.21V2338.65V2341.1V2343.54V2345.99V2348.44V2350.9V2353.36V2355.82V2358.28V2360.74V2363.21V2365.68V2368.16V2370.63V2373.11V2375.59V2378.08V2380.57V2383.06V2385.55V2388.05V2390.55V2393.05V2395.55V2398.06V2400.57V2403.09V2405.6V2408.12V2410.65V2413.17V2415.7V2418.23V2420.77V2423.31V2425.85V2428.4V2430.94V2433.5V2436.05V2438.61V2441.17V2443.74V2446.3V2448.88V2451.45V2454.03V2456.61V2459.2V2461.78V2464.38V2466.97V2469.57V2472.17V2474.78V2477.39V2480V2482.62V2485.24V2487.87V2490.5V2493.13V2495.76V2498.4V2501.05V2503.69V2506.34V2509V2511.66V2514.32V2516.98V2519.65V2522.33V2525.01V2527.69V2530.37V2533.06V2535.76V2538.45V2541.16V2543.86V2546.57V2549.29V2552.01V2554.73V2557.45V2560.19V2562.92V2565.66V2568.4V2571.15V2573.9V2576.66V2579.42V2582.18V2584.95V2587.73V2590.51V2593.29V2596.08V2598.87V2601.66V2604.46V2607.27V2610.08V2612.89V2615.71V2616H4491V1459Z" fill="white" stroke="#C4C4C4" stroke-width="120"/>
<path d="M3107 1459H4371V1459.29V1462.11V1464.92V1467.73V1470.54V1473.34V1476.13V1478.92V1481.71V1484.49V1487.27V1490.05V1492.82V1495.58V1498.34V1501.1V1503.85V1506.6V1509.34V1512.08V1514.81V1517.55V1520.27V1522.99V1525.71V1528.43V1531.14V1533.84V1536.55V1539.24V1541.94V1544.63V1547.31V1549.99V1552.67V1555.35V1558.02V1560.68V1563.34V1566V1568.66V1571.31V1573.95V1576.6V1579.24V1581.87V1584.5V1587.13V1589.76V1592.38V1595V1597.61V1600.22V1602.83V1605.43V1608.03V1610.62V1613.22V1615.8V1618.39V1620.97V1623.55V1626.13V1628.7V1631.26V1633.83V1636.39V1638.95V1641.5V1644.06V1646.6V1649.15V1651.69V1654.23V1656.77V1659.3V1661.83V1664.35V1666.88V1669.4V1671.91V1674.43V1676.94V1679.45V1681.95V1684.45V1686.95V1689.45V1691.94V1694.43V1696.92V1699.41V1701.89V1704.37V1706.84V1709.32V1711.79V1714.26V1716.72V1719.18V1721.64V1724.1V1726.56V1729.01V1731.46V1733.9V1736.35V1738.79V1741.23V1743.67V1746.1V1748.53V1750.96V1753.39V1755.81V1758.24V1760.66V1763.07V1765.49V1767.9V1770.31V1772.72V1775.13V1777.53V1779.94V1782.34V1784.73V1787.13V1789.52V1791.91V1794.3V1796.69V1799.07V1801.46V1803.84V1806.22V1808.59V1810.97V1813.34V1815.71V1818.08V1820.45V1822.82V1825.18V1827.54V1829.9V1832.26V1834.62V1836.97V1839.33V1841.68V1844.03V1846.38V1848.73V1851.07V1853.41V1855.76V1858.1V1860.44V1862.77V1865.11V1867.44V1869.78V1872.11V1874.44V1876.77V1879.1V1881.42V1883.75V1886.07V1888.39V1890.71V1893.03V1895.35V1897.67V1899.98V1902.3V1904.61V1906.93V1909.24V1911.55V1913.86V1916.16V1918.47V1920.78V1923.08V1925.39V1927.69V1929.99V1932.29V1934.59V1936.89V1939.19V1941.49V1943.79V1946.08V1948.38V1950.67V1952.97V1955.26V1957.55V1959.85V1962.14V1964.43V1966.72V1969.01V1971.3V1973.58V1975.87V1978.16V1980.44V1982.73V1985.02V1987.3V1989.59V1991.87V1994.15V1996.44V1998.72V2001V2003.29V2005.57V2007.85V2010.13V2012.41V2014.69V2016.98V2019.26V2021.54V2023.82V2026.1V2028.38V2030.66V2032.94V2035.22V2037.5V2039.78V2042.06V2044.34V2046.62V2048.9V2051.18V2053.46V2055.74V2058.02V2060.31V2062.59V2064.87V2067.15V2069.43V2071.71V2074V2076.28V2078.56V2080.85V2083.13V2085.41V2087.7V2089.98V2092.27V2094.56V2096.84V2099.13V2101.42V2103.7V2105.99V2108.28V2110.57V2112.86V2115.15V2117.45V2119.74V2122.03V2124.33V2126.62V2128.92V2131.21V2133.51V2135.81V2138.11V2140.41V2142.71V2145.01V2147.31V2149.61V2151.92V2154.22V2156.53V2158.84V2161.14V2163.45V2165.76V2168.07V2170.39V2172.7V2175.02V2177.33V2179.65V2181.97V2184.29V2186.61V2188.93V2191.25V2193.58V2195.9V2198.23V2200.56V2202.89V2205.22V2207.56V2209.89V2212.23V2214.56V2216.9V2219.24V2221.59V2223.93V2226.27V2228.62V2230.97V2233.32V2235.67V2238.03V2240.38V2242.74V2245.1V2247.46V2249.82V2252.18V2254.55V2256.92V2259.29V2261.66V2264.03V2266.41V2268.78V2271.16V2273.54V2275.93V2278.31V2280.7V2283.09V2285.48V2287.87V2290.27V2292.66V2295.06V2297.47V2299.87V2302.28V2304.69V2307.1V2309.51V2311.93V2314.34V2316.76V2319.19V2321.61V2324.04V2326.47V2328.9V2331.33V2333.77V2336.21V2338.65V2341.1V2343.54V2345.99V2348.44V2350.9V2353.36V2355.82V2358.28V2360.74V2363.21V2365.68V2368.16V2370.63V2373.11V2375.59V2378.08V2380.57V2383.06V2385.55V2388.05V2390.55V2393.05V2395.55V2398.06V2400.57V2403.09V2405.6V2408.12V2410.65V2413.17V2415.7V2418.23V2420.77V2423.31V2425.85V2428.4V2430.94V2433.5V2436.05V2438.61V2441.17V2443.74V2446.3V2448.88V2451.45V2454.03V2456.61V2459.2V2461.78V2464.38V2466.97V2469.57V2472.17V2474.78V2477.39V2480V2482.62V2485.24V2487.87V2490.5V2493.13V2495.76V2498.4V2501.05V2503.69V2506.34V2509V2511.66V2514.32V2516.98V2519.65V2522.33V2525.01V2527.69V2530.37V2533.06V2535.76V2538.45V2541.16V2543.86V2546.57V2549.29V2552.01V2554.73V2557.45V2560.19V2562.92V2565.66V2568.4V2571.15V2573.9V2576.66V2579.42V2582.18V2584.95V2587.73V2590.51V2593.29V2596.08V2598.87V2601.66V2604.46V2607.27V2610.08V2612.89V2615.71V2616H3107V1459Z" fill="white" stroke="#C4C4C4" stroke-width="120"/>
<path d="M1720 1459H2987V1459.29V1462.11V1464.92V1467.73V1470.54V1473.34V1476.13V1478.92V1481.71V1484.49V1487.27V1490.05V1492.82V1495.58V1498.34V1501.1V1503.85V1506.6V1509.34V1512.08V1514.81V1517.55V1520.27V1522.99V1525.71V1528.43V1531.14V1533.84V1536.55V1539.24V1541.94V1544.63V1547.31V1549.99V1552.67V1555.35V1558.02V1560.68V1563.34V1566V1568.66V1571.31V1573.95V1576.6V1579.24V1581.87V1584.5V1587.13V1589.76V1592.38V1595V1597.61V1600.22V1602.83V1605.43V1608.03V1610.62V1613.22V1615.8V1618.39V1620.97V1623.55V1626.13V1628.7V1631.26V1633.83V1636.39V1638.95V1641.5V1644.06V1646.6V1649.15V1651.69V1654.23V1656.77V1659.3V1661.83V1664.35V1666.88V1669.4V1671.91V1674.43V1676.94V1679.45V1681.95V1684.45V1686.95V1689.45V1691.94V1694.43V1696.92V1699.41V1701.89V1704.37V1706.84V1709.32V1711.79V1714.26V1716.72V1719.18V1721.64V1724.1V1726.56V1729.01V1731.46V1733.9V1736.35V1738.79V1741.23V1743.67V1746.1V1748.53V1750.96V1753.39V1755.81V1758.24V1760.66V1763.07V1765.49V1767.9V1770.31V1772.72V1775.13V1777.53V1779.94V1782.34V1784.73V1787.13V1789.52V1791.91V1794.3V1796.69V1799.07V1801.46V1803.84V1806.22V1808.59V1810.97V1813.34V1815.71V1818.08V1820.45V1822.82V1825.18V1827.54V1829.9V1832.26V1834.62V1836.97V1839.33V1841.68V1844.03V1846.38V1848.73V1851.07V1853.41V1855.76V1858.1V1860.44V1862.77V1865.11V1867.44V1869.78V1872.11V1874.44V1876.77V1879.1V1881.42V1883.75V1886.07V1888.39V1890.71V1893.03V1895.35V1897.67V1899.98V1902.3V1904.61V1906.93V1909.24V1911.55V1913.86V1916.16V1918.47V1920.78V1923.08V1925.39V1927.69V1929.99V1932.29V1934.59V1936.89V1939.19V1941.49V1943.79V1946.08V1948.38V1950.67V1952.97V1955.26V1957.55V1959.85V1962.14V1964.43V1966.72V1969.01V1971.3V1973.58V1975.87V1978.16V1980.44V1982.73V1985.02V1987.3V1989.59V1991.87V1994.15V1996.44V1998.72V2001V2003.29V2005.57V2007.85V2010.13V2012.41V2014.69V2016.98V2019.26V2021.54V2023.82V2026.1V2028.38V2030.66V2032.94V2035.22V2037.5V2039.78V2042.06V2044.34V2046.62V2048.9V2051.18V2053.46V2055.74V2058.02V2060.31V2062.59V2064.87V2067.15V2069.43V2071.71V2074V2076.28V2078.56V2080.85V2083.13V2085.41V2087.7V2089.98V2092.27V2094.56V2096.84V2099.13V2101.42V2103.7V2105.99V2108.28V2110.57V2112.86V2115.15V2117.45V2119.74V2122.03V2124.33V2126.62V2128.92V2131.21V2133.51V2135.81V2138.11V2140.41V2142.71V2145.01V2147.31V2149.61V2151.92V2154.22V2156.53V2158.84V2161.14V2163.45V2165.76V2168.07V2170.39V2172.7V2175.02V2177.33V2179.65V2181.97V2184.29V2186.61V2188.93V2191.25V2193.58V2195.9V2198.23V2200.56V2202.89V2205.22V2207.56V2209.89V2212.23V2214.56V2216.9V2219.24V2221.59V2223.93V2226.27V2228.62V2230.97V2233.32V2235.67V2238.03V2240.38V2242.74V2245.1V2247.46V2249.82V2252.18V2254.55V2256.92V2259.29V2261.66V2264.03V2266.41V2268.78V2271.16V2273.54V2275.93V2278.31V2280.7V2283.09V2285.48V2287.87V2290.27V2292.66V2295.06V2297.47V2299.87V2302.28V2304.69V2307.1V2309.51V2311.93V2314.34V2316.76V2319.19V2321.61V2324.04V2326.47V2328.9V2331.33V2333.77V2336.21V2338.65V2341.1V2343.54V2345.99V2348.44V2350.9V2353.36V2355.82V2358.28V2360.74V2363.21V2365.68V2368.16V2370.63V2373.11V2375.59V2378.08V2380.57V2383.06V2385.55V2388.05V2390.55V2393.05V2395.55V2398.06V2400.57V2403.09V2405.6V2408.12V2410.65V2413.17V2415.7V2418.23V2420.77V2423.31V2425.85V2428.4V2430.94V2433.5V2436.05V2438.61V2441.17V2443.74V2446.3V2448.88V2451.45V2454.03V2456.61V2459.2V2461.78V2464.38V2466.97V2469.57V2472.17V2474.78V2477.39V2480V2482.62V2485.24V2487.87V2490.5V2493.13V2495.76V2498.4V2501.05V2503.69V2506.34V2509V2511.66V2514.32V2516.98V2519.65V2522.33V2525.01V2527.69V2530.37V2533.06V2535.76V2538.45V2541.16V2543.86V2546.57V2549.29V2552.01V2554.73V2557.45V2560.19V2562.92V2565.66V2568.4V2571.15V2573.9V2576.66V2579.42V2582.18V2584.95V2587.73V2590.51V2593.29V2596.08V2598.87V2601.66V2604.46V2607.27V2610.08V2612.89V2615.71V2616H1720V1459Z" fill="white" stroke="#C4C4C4" stroke-width="120"/>
<path d="M3112 4013H4376V4013.38V4016.21V4019.02V4021.84V4024.65V4027.45V4030.25V4033.05V4035.84V4038.63V4041.41V4044.19V4046.96V4049.73V4052.5V4055.26V4058.01V4060.77V4063.51V4066.26V4069V4071.73V4074.46V4077.19V4079.91V4082.63V4085.34V4088.05V4090.76V4093.46V4096.16V4098.85V4101.54V4104.23V4106.91V4109.59V4112.27V4114.94V4117.6V4120.26V4122.92V4125.58V4128.23V4130.88V4133.52V4136.16V4138.8V4141.43V4144.06V4146.68V4149.3V4151.92V4154.53V4157.14V4159.75V4162.36V4164.95V4167.55V4170.14V4172.73V4175.32V4177.9V4180.48V4183.06V4185.63V4188.2V4190.76V4193.33V4195.88V4198.44V4200.99V4203.54V4206.09V4208.63V4211.17V4213.71V4216.24V4218.77V4221.3V4223.82V4226.34V4228.86V4231.37V4233.89V4236.4V4238.9V4241.4V4243.9V4246.4V4248.9V4251.39V4253.88V4256.36V4258.84V4261.33V4263.8V4266.28V4268.75V4271.22V4273.68V4276.15V4278.61V4281.07V4283.52V4285.98V4288.43V4290.88V4293.32V4295.77V4298.21V4300.64V4303.08V4305.51V4307.94V4310.37V4312.8V4315.22V4317.65V4320.06V4322.48V4324.9V4327.31V4329.72V4332.13V4334.53V4336.94V4339.34V4341.74V4344.13V4346.53V4348.92V4351.31V4353.7V4356.09V4358.47V4360.86V4363.24V4365.62V4367.99V4370.37V4372.74V4375.11V4377.48V4379.85V4382.21V4384.58V4386.94V4389.3V4391.66V4394.02V4396.37V4398.73V4401.08V4403.43V4405.78V4408.13V4410.47V4412.82V4415.16V4417.5V4419.84V4422.18V4424.51V4426.85V4429.18V4431.52V4433.85V4436.18V4438.51V4440.83V4443.16V4445.48V4447.81V4450.13V4452.45V4454.77V4457.09V4459.4V4461.72V4464.04V4466.35V4468.66V4470.97V4473.29V4475.6V4477.9V4480.21V4482.52V4484.82V4487.13V4489.43V4491.74V4494.04V4496.34V4498.64V4500.94V4503.24V4505.54V4507.84V4510.13V4512.43V4514.72V4517.02V4519.31V4521.61V4523.9V4526.19V4528.48V4530.77V4533.07V4535.36V4537.64V4539.93V4542.22V4544.51V4546.8V4549.09V4551.37V4553.66V4555.95V4558.23V4560.52V4562.8V4565.09V4567.37V4569.66V4571.94V4574.23V4576.51V4578.8V4581.08V4583.36V4585.65V4587.93V4590.22V4592.5V4594.78V4597.07V4599.35V4601.64V4603.92V4606.2V4608.49V4610.77V4613.06V4615.34V4617.63V4619.91V4622.2V4624.48V4626.77V4629.05V4631.34V4633.63V4635.91V4638.2V4640.49V4642.78V4645.07V4647.36V4649.64V4651.93V4654.23V4656.52V4658.81V4661.1V4663.39V4665.69V4667.98V4670.28V4672.57V4674.87V4677.16V4679.46V4681.76V4684.06V4686.36V4688.66V4690.96V4693.26V4695.57V4697.87V4700.18V4702.48V4704.79V4707.1V4709.4V4711.71V4714.03V4716.34V4718.65V4720.96V4723.28V4725.6V4727.91V4730.23V4732.55V4734.87V4737.19V4739.52V4741.84V4744.17V4746.49V4748.82V4751.15V4753.48V4755.82V4758.15V4760.49V4762.82V4765.16V4767.5V4769.84V4772.18V4774.53V4776.87V4779.22V4781.57V4783.92V4786.27V4788.63V4790.98V4793.34V4795.7V4798.06V4800.42V4802.79V4805.15V4807.52V4809.89V4812.26V4814.63V4817.01V4819.38V4821.76V4824.14V4826.53V4828.91V4831.3V4833.69V4836.08V4838.47V4840.87V4843.26V4845.66V4848.06V4850.47V4852.87V4855.28V4857.69V4860.1V4862.52V4864.94V4867.35V4869.78V4872.2V4874.63V4877.05V4879.49V4881.92V4884.36V4886.79V4889.23V4891.68V4894.12V4896.57V4899.02V4901.48V4903.93V4906.39V4908.85V4911.32V4913.78V4916.25V4918.72V4921.2V4923.67V4926.16V4928.64V4931.12V4933.61V4936.1V4938.6V4941.1V4943.6V4946.1V4948.6V4951.11V4953.62V4956.14V4958.66V4961.18V4963.7V4966.23V4968.76V4971.29V4973.83V4976.37V4978.91V4981.46V4984.01V4986.56V4989.12V4991.67V4994.24V4996.8V4999.37V5001.94V5004.52V5007.1V5009.68V5012.27V5014.86V5017.45V5020.05V5022.64V5025.25V5027.86V5030.47V5033.08V5035.7V5038.32V5040.94V5043.57V5046.2V5048.84V5051.48V5054.12V5056.77V5059.42V5062.08V5064.74V5067.4V5070.06V5072.73V5075.41V5078.09V5080.77V5083.46V5086.15V5088.84V5091.54V5094.24V5096.95V5099.66V5102.37V5105.09V5107.81V5110.54V5113.27V5116V5118.74V5121.49V5124.23V5126.99V5129.74V5132.5V5135.27V5138.04V5140.81V5143.59V5146.37V5149.16V5151.95V5154.75V5157.55V5160.35V5163.16V5165.98V5168.79V5171.62V5172H3112V4013Z" fill="white" stroke="#C4C4C4" stroke-width="120"/>
<path d="M1725 4013H2992V4013.38V4016.21V4019.02V4021.84V4024.65V4027.45V4030.25V4033.05V4035.84V4038.63V4041.41V4044.19V4046.96V4049.73V4052.5V4055.26V4058.01V4060.77V4063.51V4066.26V4069V4071.73V4074.46V4077.19V4079.91V4082.63V4085.34V4088.05V4090.76V4093.46V4096.16V4098.85V4101.54V4104.23V4106.91V4109.59V4112.27V4114.94V4117.6V4120.26V4122.92V4125.58V4128.23V4130.88V4133.52V4136.16V4138.8V4141.43V4144.06V4146.68V4149.3V4151.92V4154.53V4157.14V4159.75V4162.36V4164.95V4167.55V4170.14V4172.73V4175.32V4177.9V4180.48V4183.06V4185.63V4188.2V4190.76V4193.33V4195.88V4198.44V4200.99V4203.54V4206.09V4208.63V4211.17V4213.71V4216.24V4218.77V4221.3V4223.82V4226.34V4228.86V4231.37V4233.89V4236.4V4238.9V4241.4V4243.9V4246.4V4248.9V4251.39V4253.88V4256.36V4258.84V4261.33V4263.8V4266.28V4268.75V4271.22V4273.68V4276.15V4278.61V4281.07V4283.52V4285.98V4288.43V4290.88V4293.32V4295.77V4298.21V4300.64V4303.08V4305.51V4307.94V4310.37V4312.8V4315.22V4317.65V4320.06V4322.48V4324.9V4327.31V4329.72V4332.13V4334.53V4336.94V4339.34V4341.74V4344.13V4346.53V4348.92V4351.31V4353.7V4356.09V4358.47V4360.86V4363.24V4365.62V4367.99V4370.37V4372.74V4375.11V4377.48V4379.85V4382.21V4384.58V4386.94V4389.3V4391.66V4394.02V4396.37V4398.73V4401.08V4403.43V4405.78V4408.13V4410.47V4412.82V4415.16V4417.5V4419.84V4422.18V4424.51V4426.85V4429.18V4431.52V4433.85V4436.18V4438.51V4440.83V4443.16V4445.48V4447.81V4450.13V4452.45V4454.77V4457.09V4459.4V4461.72V4464.04V4466.35V4468.66V4470.97V4473.29V4475.6V4477.9V4480.21V4482.52V4484.82V4487.13V4489.43V4491.74V4494.04V4496.34V4498.64V4500.94V4503.24V4505.54V4507.84V4510.13V4512.43V4514.72V4517.02V4519.31V4521.61V4523.9V4526.19V4528.48V4530.77V4533.07V4535.36V4537.64V4539.93V4542.22V4544.51V4546.8V4549.09V4551.37V4553.66V4555.95V4558.23V4560.52V4562.8V4565.09V4567.37V4569.66V4571.94V4574.23V4576.51V4578.8V4581.08V4583.36V4585.65V4587.93V4590.22V4592.5V4594.78V4597.07V4599.35V4601.64V4603.92V4606.2V4608.49V4610.77V4613.06V4615.34V4617.63V4619.91V4622.2V4624.48V4626.77V4629.05V4631.34V4633.63V4635.91V4638.2V4640.49V4642.78V4645.07V4647.36V4649.64V4651.93V4654.23V4656.52V4658.81V4661.1V4663.39V4665.69V4667.98V4670.28V4672.57V4674.87V4677.16V4679.46V4681.76V4684.06V4686.36V4688.66V4690.96V4693.26V4695.57V4697.87V4700.18V4702.48V4704.79V4707.1V4709.4V4711.71V4714.03V4716.34V4718.65V4720.96V4723.28V4725.6V4727.91V4730.23V4732.55V4734.87V4737.19V4739.52V4741.84V4744.17V4746.49V4748.82V4751.15V4753.48V4755.82V4758.15V4760.49V4762.82V4765.16V4767.5V4769.84V4772.18V4774.53V4776.87V4779.22V4781.57V4783.92V4786.27V4788.63V4790.98V4793.34V4795.7V4798.06V4800.42V4802.79V4805.15V4807.52V4809.89V4812.26V4814.63V4817.01V4819.38V4821.76V4824.14V4826.53V4828.91V4831.3V4833.69V4836.08V4838.47V4840.87V4843.26V4845.66V4848.06V4850.47V4852.87V4855.28V4857.69V4860.1V4862.52V4864.94V4867.35V4869.78V4872.2V4874.63V4877.05V4879.49V4881.92V4884.36V4886.79V4889.23V4891.68V4894.12V4896.57V4899.02V4901.48V4903.93V4906.39V4908.85V4911.32V4913.78V4916.25V4918.72V4921.2V4923.67V4926.16V4928.64V4931.12V4933.61V4936.1V4938.6V4941.1V4943.6V4946.1V4948.6V4951.11V4953.62V4956.14V4958.66V4961.18V4963.7V4966.23V4968.76V4971.29V4973.83V4976.37V4978.91V4981.46V4984.01V4986.56V4989.12V4991.67V4994.24V4996.8V4999.37V5001.94V5004.52V5007.1V5009.68V5012.27V5014.86V5017.45V5020.05V5022.64V5025.25V5027.86V5030.47V5033.08V5035.7V5038.32V5040.94V5043.57V5046.2V5048.84V5051.48V5054.12V5056.77V5059.42V5062.08V5064.74V5067.4V5070.06V5072.73V5075.41V5078.09V5080.77V5083.46V5086.15V5088.84V5091.54V5094.24V5096.95V5099.66V5102.37V5105.09V5107.81V5110.54V5113.27V5116V5118.74V5121.49V5124.23V5126.99V5129.74V5132.5V5135.27V5138.04V5140.81V5143.59V5146.37V5149.16V5151.95V5154.75V5157.55V5160.35V5163.16V5165.98V5168.79V5171.62V5172H1725V4013Z" fill="white" stroke="#C4C4C4" stroke-width="120"/>
<path d="M341 2736H1605V2736.29V2739.11V2741.92V2744.73V2747.54V2750.34V2753.13V2755.92V2758.71V2761.49V2764.27V2767.05V2769.82V2772.58V2775.34V2778.1V2780.85V2783.6V2786.34V2789.08V2791.81V2794.55V2797.27V2799.99V2802.71V2805.43V2808.14V2810.84V2813.55V2816.24V2818.94V2821.63V2824.31V2826.99V2829.67V2832.35V2835.02V2837.68V2840.34V2843V2845.66V2848.31V2850.95V2853.6V2856.24V2858.87V2861.5V2864.13V2866.76V2869.38V2872V2874.61V2877.22V2879.83V2882.43V2885.03V2887.62V2890.22V2892.8V2895.39V2897.97V2900.55V2903.13V2905.7V2908.26V2910.83V2913.39V2915.95V2918.5V2921.06V2923.6V2926.15V2928.69V2931.23V2933.77V2936.3V2938.83V2941.35V2943.88V2946.4V2948.91V2951.43V2953.94V2956.45V2958.95V2961.45V2963.95V2966.45V2968.94V2971.43V2973.92V2976.41V2978.89V2981.37V2983.84V2986.32V2988.79V2991.26V2993.72V2996.18V2998.64V3001.1V3003.56V3006.01V3008.46V3010.9V3013.35V3015.79V3018.23V3020.67V3023.1V3025.53V3027.96V3030.39V3032.81V3035.24V3037.66V3040.07V3042.49V3044.9V3047.31V3049.72V3052.13V3054.53V3056.94V3059.34V3061.73V3064.13V3066.52V3068.91V3071.3V3073.69V3076.07V3078.46V3080.84V3083.22V3085.59V3087.97V3090.34V3092.71V3095.08V3097.45V3099.82V3102.18V3104.54V3106.9V3109.26V3111.62V3113.97V3116.33V3118.68V3121.03V3123.38V3125.73V3128.07V3130.41V3132.76V3135.1V3137.44V3139.77V3142.11V3144.44V3146.78V3149.11V3151.44V3153.77V3156.1V3158.42V3160.75V3163.07V3165.39V3167.71V3170.03V3172.35V3174.67V3176.98V3179.3V3181.61V3183.93V3186.24V3188.55V3190.86V3193.16V3195.47V3197.78V3200.08V3202.39V3204.69V3206.99V3209.29V3211.59V3213.89V3216.19V3218.49V3220.79V3223.08V3225.38V3227.67V3229.97V3232.26V3234.55V3236.85V3239.14V3241.43V3243.72V3246.01V3248.3V3250.58V3252.87V3255.16V3257.44V3259.73V3262.02V3264.3V3266.59V3268.87V3271.15V3273.44V3275.72V3278V3280.29V3282.57V3284.85V3287.13V3289.41V3291.69V3293.98V3296.26V3298.54V3300.82V3303.1V3305.38V3307.66V3309.94V3312.22V3314.5V3316.78V3319.06V3321.34V3323.62V3325.9V3328.18V3330.46V3332.74V3335.02V3337.31V3339.59V3341.87V3344.15V3346.43V3348.71V3351V3353.28V3355.56V3357.85V3360.13V3362.41V3364.7V3366.98V3369.27V3371.56V3373.84V3376.13V3378.42V3380.7V3382.99V3385.28V3387.57V3389.86V3392.15V3394.45V3396.74V3399.03V3401.33V3403.62V3405.92V3408.21V3410.51V3412.81V3415.11V3417.41V3419.71V3422.01V3424.31V3426.61V3428.92V3431.22V3433.53V3435.84V3438.14V3440.45V3442.76V3445.07V3447.39V3449.7V3452.02V3454.33V3456.65V3458.97V3461.29V3463.61V3465.93V3468.25V3470.58V3472.9V3475.23V3477.56V3479.89V3482.22V3484.56V3486.89V3489.23V3491.56V3493.9V3496.24V3498.59V3500.93V3503.27V3505.62V3507.97V3510.32V3512.67V3515.03V3517.38V3519.74V3522.1V3524.46V3526.82V3529.18V3531.55V3533.92V3536.29V3538.66V3541.03V3543.41V3545.78V3548.16V3550.54V3552.93V3555.31V3557.7V3560.09V3562.48V3564.87V3567.27V3569.66V3572.06V3574.47V3576.87V3579.28V3581.69V3584.1V3586.51V3588.93V3591.34V3593.76V3596.19V3598.61V3601.04V3603.47V3605.9V3608.33V3610.77V3613.21V3615.65V3618.1V3620.54V3622.99V3625.44V3627.9V3630.36V3632.82V3635.28V3637.74V3640.21V3642.68V3645.16V3647.63V3650.11V3652.59V3655.08V3657.57V3660.06V3662.55V3665.05V3667.55V3670.05V3672.55V3675.06V3677.57V3680.09V3682.6V3685.12V3687.65V3690.17V3692.7V3695.23V3697.77V3700.31V3702.85V3705.4V3707.94V3710.5V3713.05V3715.61V3718.17V3720.74V3723.3V3725.88V3728.45V3731.03V3733.61V3736.2V3738.78V3741.38V3743.97V3746.57V3749.17V3751.78V3754.39V3757V3759.62V3762.24V3764.87V3767.5V3770.13V3772.76V3775.4V3778.05V3780.69V3783.34V3786V3788.66V3791.32V3793.98V3796.65V3799.33V3802.01V3804.69V3807.37V3810.06V3812.76V3815.45V3818.16V3820.86V3823.57V3826.29V3829.01V3831.73V3834.45V3837.19V3839.92V3842.66V3845.4V3848.15V3850.9V3853.66V3856.42V3859.18V3861.95V3864.73V3867.51V3870.29V3873.08V3875.87V3878.66V3881.46V3884.27V3887.08V3889.89V3892.71V3893H341V2736Z" fill="white" stroke="#C4C4C4" stroke-width="120"/>
<path d="M4496 2736H5763V2736.29V2739.11V2741.92V2744.73V2747.54V2750.34V2753.13V2755.92V2758.71V2761.49V2764.27V2767.05V2769.82V2772.58V2775.34V2778.1V2780.85V2783.6V2786.34V2789.08V2791.81V2794.55V2797.27V2799.99V2802.71V2805.43V2808.14V2810.84V2813.55V2816.24V2818.94V2821.63V2824.31V2826.99V2829.67V2832.35V2835.02V2837.68V2840.34V2843V2845.66V2848.31V2850.95V2853.6V2856.24V2858.87V2861.5V2864.13V2866.76V2869.38V2872V2874.61V2877.22V2879.83V2882.43V2885.03V2887.62V2890.22V2892.8V2895.39V2897.97V2900.55V2903.13V2905.7V2908.26V2910.83V2913.39V2915.95V2918.5V2921.06V2923.6V2926.15V2928.69V2931.23V2933.77V2936.3V2938.83V2941.35V2943.88V2946.4V2948.91V2951.43V2953.94V2956.45V2958.95V2961.45V2963.95V2966.45V2968.94V2971.43V2973.92V2976.41V2978.89V2981.37V2983.84V2986.32V2988.79V2991.26V2993.72V2996.18V2998.64V3001.1V3003.56V3006.01V3008.46V3010.9V3013.35V3015.79V3018.23V3020.67V3023.1V3025.53V3027.96V3030.39V3032.81V3035.24V3037.66V3040.07V3042.49V3044.9V3047.31V3049.72V3052.13V3054.53V3056.94V3059.34V3061.73V3064.13V3066.52V3068.91V3071.3V3073.69V3076.07V3078.46V3080.84V3083.22V3085.59V3087.97V3090.34V3092.71V3095.08V3097.45V3099.82V3102.18V3104.54V3106.9V3109.26V3111.62V3113.97V3116.33V3118.68V3121.03V3123.38V3125.73V3128.07V3130.41V3132.76V3135.1V3137.44V3139.77V3142.11V3144.44V3146.78V3149.11V3151.44V3153.77V3156.1V3158.42V3160.75V3163.07V3165.39V3167.71V3170.03V3172.35V3174.67V3176.98V3179.3V3181.61V3183.93V3186.24V3188.55V3190.86V3193.16V3195.47V3197.78V3200.08V3202.39V3204.69V3206.99V3209.29V3211.59V3213.89V3216.19V3218.49V3220.79V3223.08V3225.38V3227.67V3229.97V3232.26V3234.55V3236.85V3239.14V3241.43V3243.72V3246.01V3248.3V3250.58V3252.87V3255.16V3257.44V3259.73V3262.02V3264.3V3266.59V3268.87V3271.15V3273.44V3275.72V3278V3280.29V3282.57V3284.85V3287.13V3289.41V3291.69V3293.98V3296.26V3298.54V3300.82V3303.1V3305.38V3307.66V3309.94V3312.22V3314.5V3316.78V3319.06V3321.34V3323.62V3325.9V3328.18V3330.46V3332.74V3335.02V3337.31V3339.59V3341.87V3344.15V3346.43V3348.71V3351V3353.28V3355.56V3357.85V3360.13V3362.41V3364.7V3366.98V3369.27V3371.56V3373.84V3376.13V3378.42V3380.7V3382.99V3385.28V3387.57V3389.86V3392.15V3394.45V3396.74V3399.03V3401.33V3403.62V3405.92V3408.21V3410.51V3412.81V3415.11V3417.41V3419.71V3422.01V3424.31V3426.61V3428.92V3431.22V3433.53V3435.84V3438.14V3440.45V3442.76V3445.07V3447.39V3449.7V3452.02V3454.33V3456.65V3458.97V3461.29V3463.61V3465.93V3468.25V3470.58V3472.9V3475.23V3477.56V3479.89V3482.22V3484.56V3486.89V3489.23V3491.56V3493.9V3496.24V3498.59V3500.93V3503.27V3505.62V3507.97V3510.32V3512.67V3515.03V3517.38V3519.74V3522.1V3524.46V3526.82V3529.18V3531.55V3533.92V3536.29V3538.66V3541.03V3543.41V3545.78V3548.16V3550.54V3552.93V3555.31V3557.7V3560.09V3562.48V3564.87V3567.27V3569.66V3572.06V3574.47V3576.87V3579.28V3581.69V3584.1V3586.51V3588.93V3591.34V3593.76V3596.19V3598.61V3601.04V3603.47V3605.9V3608.33V3610.77V3613.21V3615.65V3618.1V3620.54V3622.99V3625.44V3627.9V3630.36V3632.82V3635.28V3637.74V3640.21V3642.68V3645.16V3647.63V3650.11V3652.59V3655.08V3657.57V3660.06V3662.55V3665.05V3667.55V3670.05V3672.55V3675.06V3677.57V3680.09V3682.6V3685.12V3687.65V3690.17V3692.7V3695.23V3697.77V3700.31V3702.85V3705.4V3707.94V3710.5V3713.05V3715.61V3718.17V3720.74V3723.3V3725.88V3728.45V3731.03V3733.61V3736.2V3738.78V3741.38V3743.97V3746.57V3749.17V3751.78V3754.39V3757V3759.62V3762.24V3764.87V3767.5V3770.13V3772.76V3775.4V3778.05V3780.69V3783.34V3786V3788.66V3791.32V3793.98V3796.65V3799.33V3802.01V3804.69V3807.37V3810.06V3812.76V3815.45V3818.16V3820.86V3823.57V3826.29V3829.01V3831.73V3834.45V3837.19V3839.92V3842.66V3845.4V3848.15V3850.9V3853.66V3856.42V3859.18V3861.95V3864.73V3867.51V3870.29V3873.08V3875.87V3878.66V3881.46V3884.27V3887.08V3889.89V3892.71V3893H4496V2736Z" fill="white" stroke="#C4C4C4" stroke-width="120"/>
<path d="M3112 2736H4376V2736.29V2739.11V2741.92V2744.73V2747.54V2750.34V2753.13V2755.92V2758.71V2761.49V2764.27V2767.05V2769.82V2772.58V2775.34V2778.1V2780.85V2783.6V2786.34V2789.08V2791.81V2794.55V2797.27V2799.99V2802.71V2805.43V2808.14V2810.84V2813.55V2816.24V2818.94V2821.63V2824.31V2826.99V2829.67V2832.35V2835.02V2837.68V2840.34V2843V2845.66V2848.31V2850.95V2853.6V2856.24V2858.87V2861.5V2864.13V2866.76V2869.38V2872V2874.61V2877.22V2879.83V2882.43V2885.03V2887.62V2890.22V2892.8V2895.39V2897.97V2900.55V2903.13V2905.7V2908.26V2910.83V2913.39V2915.95V2918.5V2921.06V2923.6V2926.15V2928.69V2931.23V2933.77V2936.3V2938.83V2941.35V2943.88V2946.4V2948.91V2951.43V2953.94V2956.45V2958.95V2961.45V2963.95V2966.45V2968.94V2971.43V2973.92V2976.41V2978.89V2981.37V2983.84V2986.32V2988.79V2991.26V2993.72V2996.18V2998.64V3001.1V3003.56V3006.01V3008.46V3010.9V3013.35V3015.79V3018.23V3020.67V3023.1V3025.53V3027.96V3030.39V3032.81V3035.24V3037.66V3040.07V3042.49V3044.9V3047.31V3049.72V3052.13V3054.53V3056.94V3059.34V3061.73V3064.13V3066.52V3068.91V3071.3V3073.69V3076.07V3078.46V3080.84V3083.22V3085.59V3087.97V3090.34V3092.71V3095.08V3097.45V3099.82V3102.18V3104.54V3106.9V3109.26V3111.62V3113.97V3116.33V3118.68V3121.03V3123.38V3125.73V3128.07V3130.41V3132.76V3135.1V3137.44V3139.77V3142.11V3144.44V3146.78V3149.11V3151.44V3153.77V3156.1V3158.42V3160.75V3163.07V3165.39V3167.71V3170.03V3172.35V3174.67V3176.98V3179.3V3181.61V3183.93V3186.24V3188.55V3190.86V3193.16V3195.47V3197.78V3200.08V3202.39V3204.69V3206.99V3209.29V3211.59V3213.89V3216.19V3218.49V3220.79V3223.08V3225.38V3227.67V3229.97V3232.26V3234.55V3236.85V3239.14V3241.43V3243.72V3246.01V3248.3V3250.58V3252.87V3255.16V3257.44V3259.73V3262.02V3264.3V3266.59V3268.87V3271.15V3273.44V3275.72V3278V3280.29V3282.57V3284.85V3287.13V3289.41V3291.69V3293.98V3296.26V3298.54V3300.82V3303.1V3305.38V3307.66V3309.94V3312.22V3314.5V3316.78V3319.06V3321.34V3323.62V3325.9V3328.18V3330.46V3332.74V3335.02V3337.31V3339.59V3341.87V3344.15V3346.43V3348.71V3351V3353.28V3355.56V3357.85V3360.13V3362.41V3364.7V3366.98V3369.27V3371.56V3373.84V3376.13V3378.42V3380.7V3382.99V3385.28V3387.57V3389.86V3392.15V3394.45V3396.74V3399.03V3401.33V3403.62V3405.92V3408.21V3410.51V3412.81V3415.11V3417.41V3419.71V3422.01V3424.31V3426.61V3428.92V3431.22V3433.53V3435.84V3438.14V3440.45V3442.76V3445.07V3447.39V3449.7V3452.02V3454.33V3456.65V3458.97V3461.29V3463.61V3465.93V3468.25V3470.58V3472.9V3475.23V3477.56V3479.89V3482.22V3484.56V3486.89V3489.23V3491.56V3493.9V3496.24V3498.59V3500.93V3503.27V3505.62V3507.97V3510.32V3512.67V3515.03V3517.38V3519.74V3522.1V3524.46V3526.82V3529.18V3531.55V3533.92V3536.29V3538.66V3541.03V3543.41V3545.78V3548.16V3550.54V3552.93V3555.31V3557.7V3560.09V3562.48V3564.87V3567.27V3569.66V3572.06V3574.47V3576.87V3579.28V3581.69V3584.1V3586.51V3588.93V3591.34V3593.76V3596.19V3598.61V3601.04V3603.47V3605.9V3608.33V3610.77V3613.21V3615.65V3618.1V3620.54V3622.99V3625.44V3627.9V3630.36V3632.82V3635.28V3637.74V3640.21V3642.68V3645.16V3647.63V3650.11V3652.59V3655.08V3657.57V3660.06V3662.55V3665.05V3667.55V3670.05V3672.55V3675.06V3677.57V3680.09V3682.6V3685.12V3687.65V3690.17V3692.7V3695.23V3697.77V3700.31V3702.85V3705.4V3707.94V3710.5V3713.05V3715.61V3718.17V3720.74V3723.3V3725.88V3728.45V3731.03V3733.61V3736.2V3738.78V3741.38V3743.97V3746.57V3749.17V3751.78V3754.39V3757V3759.62V3762.24V3764.87V3767.5V3770.13V3772.76V3775.4V3778.05V3780.69V3783.34V3786V3788.66V3791.32V3793.98V3796.65V3799.33V3802.01V3804.69V3807.37V3810.06V3812.76V3815.45V3818.16V3820.86V3823.57V3826.29V3829.01V3831.73V3834.45V3837.19V3839.92V3842.66V3845.4V3848.15V3850.9V3853.66V3856.42V3859.18V3861.95V3864.73V3867.51V3870.29V3873.08V3875.87V3878.66V3881.46V3884.27V3887.08V3889.89V3892.71V3893H3112V2736Z" fill="white" stroke="#C4C4C4" stroke-width="120"/>
<path d="M1725 2736H2992V2736.29V2739.11V2741.92V2744.73V2747.54V2750.34V2753.13V2755.92V2758.71V2761.49V2764.27V2767.05V2769.82V2772.58V2775.34V2778.1V2780.85V2783.6V2786.34V2789.08V2791.81V2794.55V2797.27V2799.99V2802.71V2805.43V2808.14V2810.84V2813.55V2816.24V2818.94V2821.63V2824.31V2826.99V2829.67V2832.35V2835.02V2837.68V2840.34V2843V2845.66V2848.31V2850.95V2853.6V2856.24V2858.87V2861.5V2864.13V2866.76V2869.38V2872V2874.61V2877.22V2879.83V2882.43V2885.03V2887.62V2890.22V2892.8V2895.39V2897.97V2900.55V2903.13V2905.7V2908.26V2910.83V2913.39V2915.95V2918.5V2921.06V2923.6V2926.15V2928.69V2931.23V2933.77V2936.3V2938.83V2941.35V2943.88V2946.4V2948.91V2951.43V2953.94V2956.45V2958.95V2961.45V2963.95V2966.45V2968.94V2971.43V2973.92V2976.41V2978.89V2981.37V2983.84V2986.32V2988.79V2991.26V2993.72V2996.18V2998.64V3001.1V3003.56V3006.01V3008.46V3010.9V3013.35V3015.79V3018.23V3020.67V3023.1V3025.53V3027.96V3030.39V3032.81V3035.24V3037.66V3040.07V3042.49V3044.9V3047.31V3049.72V3052.13V3054.53V3056.94V3059.34V3061.73V3064.13V3066.52V3068.91V3071.3V3073.69V3076.07V3078.46V3080.84V3083.22V3085.59V3087.97V3090.34V3092.71V3095.08V3097.45V3099.82V3102.18V3104.54V3106.9V3109.26V3111.62V3113.97V3116.33V3118.68V3121.03V3123.38V3125.73V3128.07V3130.41V3132.76V3135.1V3137.44V3139.77V3142.11V3144.44V3146.78V3149.11V3151.44V3153.77V3156.1V3158.42V3160.75V3163.07V3165.39V3167.71V3170.03V3172.35V3174.67V3176.98V3179.3V3181.61V3183.93V3186.24V3188.55V3190.86V3193.16V3195.47V3197.78V3200.08V3202.39V3204.69V3206.99V3209.29V3211.59V3213.89V3216.19V3218.49V3220.79V3223.08V3225.38V3227.67V3229.97V3232.26V3234.55V3236.85V3239.14V3241.43V3243.72V3246.01V3248.3V3250.58V3252.87V3255.16V3257.44V3259.73V3262.02V3264.3V3266.59V3268.87V3271.15V3273.44V3275.72V3278V3280.29V3282.57V3284.85V3287.13V3289.41V3291.69V3293.98V3296.26V3298.54V3300.82V3303.1V3305.38V3307.66V3309.94V3312.22V3314.5V3316.78V3319.06V3321.34V3323.62V3325.9V3328.18V3330.46V3332.74V3335.02V3337.31V3339.59V3341.87V3344.15V3346.43V3348.71V3351V3353.28V3355.56V3357.85V3360.13V3362.41V3364.7V3366.98V3369.27V3371.56V3373.84V3376.13V3378.42V3380.7V3382.99V3385.28V3387.57V3389.86V3392.15V3394.45V3396.74V3399.03V3401.33V3403.62V3405.92V3408.21V3410.51V3412.81V3415.11V3417.41V3419.71V3422.01V3424.31V3426.61V3428.92V3431.22V3433.53V3435.84V3438.14V3440.45V3442.76V3445.07V3447.39V3449.7V3452.02V3454.33V3456.65V3458.97V3461.29V3463.61V3465.93V3468.25V3470.58V3472.9V3475.23V3477.56V3479.89V3482.22V3484.56V3486.89V3489.23V3491.56V3493.9V3496.24V3498.59V3500.93V3503.27V3505.62V3507.97V3510.32V3512.67V3515.03V3517.38V3519.74V3522.1V3524.46V3526.82V3529.18V3531.55V3533.92V3536.29V3538.66V3541.03V3543.41V3545.78V3548.16V3550.54V3552.93V3555.31V3557.7V3560.09V3562.48V3564.87V3567.27V3569.66V3572.06V3574.47V3576.87V3579.28V3581.69V3584.1V3586.51V3588.93V3591.34V3593.76V3596.19V3598.61V3601.04V3603.47V3605.9V3608.33V3610.77V3613.21V3615.65V3618.1V3620.54V3622.99V3625.44V3627.9V3630.36V3632.82V3635.28V3637.74V3640.21V3642.68V3645.16V3647.63V3650.11V3652.59V3655.08V3657.57V3660.06V3662.55V3665.05V3667.55V3670.05V3672.55V3675.06V3677.57V3680.09V3682.6V3685.12V3687.65V3690.17V3692.7V3695.23V3697.77V3700.31V3702.85V3705.4V3707.94V3710.5V3713.05V3715.61V3718.17V3720.74V3723.3V3725.88V3728.45V3731.03V3733.61V3736.2V3738.78V3741.38V3743.97V3746.57V3749.17V3751.78V3754.39V3757V3759.62V3762.24V3764.87V3767.5V3770.13V3772.76V3775.4V3778.05V3780.69V3783.34V3786V3788.66V3791.32V3793.98V3796.65V3799.33V3802.01V3804.69V3807.37V3810.06V3812.76V3815.45V3818.16V3820.86V3823.57V3826.29V3829.01V3831.73V3834.45V3837.19V3839.92V3842.66V3845.4V3848.15V3850.9V3853.66V3856.42V3859.18V3861.95V3864.73V3867.51V3870.29V3873.08V3875.87V3878.66V3881.46V3884.27V3887.08V3889.89V3892.71V3893H1725V2736Z" fill="white" stroke="#C4C4C4" stroke-width="120"/>
<rect x="1536" y="3953" width="129" height="1248" fill="#C4C4C4"/>
<rect x="4364" y="4081" width="198" height="1036" fill="#C4C4C4"/>
<path d="M278.5 1012.6V1394.1L5806 1410.09C5826.83 1526.93 5856 1604.69 5806 981.094C5756 357.495 5239.5 187.262 4987.5 180.095C3894.17 171.262 1456 176.597 1215 176.598C677 176.6 278.5 539.098 278.5 1012.6Z" fill="#C4C4C4"/>
<path d="M313 3953H1660V4081H313V3953Z" fill="#C4C4C4"/>
<path d="M814 5127H2073V5211H814V5127Z" fill="#C4C4C4"/>
<path d="M4241 5117H5332V5201H4241V5117Z" fill="#C4C4C4"/>
<path d="M4396 3901H5756V4081H4396V3901Z" fill="#C4C4C4"/>
</svg>
