<svg width="435" height="422" viewBox="0 0 435 422" fill="none" xmlns="http://www.w3.org/2000/svg">
<path d="M71.1796 305.055L240.758 120.683C240.758 120.683 235.356 118.431 253.634 98.5589C271.912 78.6863 274.945 83.5137 274.945 83.5137L311.501 43.7687C334.892 18.3367 334.642 18.595 361.514 43.3101L388.378 68.0192C416.964 94.2551 415.979 93.4052 392.831 118.573L356.275 158.318C356.275 158.318 362.354 159.833 343.061 180.81C323.767 201.786 322.088 195.487 322.088 195.487L152.51 379.86C152.51 379.86 122.522 392.834 96.3369 399.524C80.3304 403.613 65.7452 405.353 60.3002 400.345C54.8551 395.337 55.1075 380.414 57.5179 363.82C61.4611 336.673 71.1796 305.055 71.1796 305.055Z" fill="#F2F2F2"/>
<path d="M71.1796 305.055L240.758 120.683M71.1796 305.055L74.9346 318.699L86.636 319.272L89.655 332.238L99.2403 330.865L101.063 342.731L111.845 342.457L111.736 352.547L123.069 352.781L123.88 363.717L133.741 362.597L134.552 373.533L143.125 371.228L141.544 379.964L152.51 379.86M71.1796 305.055C71.1796 305.055 61.4611 336.673 57.5179 363.82M152.51 379.86L322.088 195.487M152.51 379.86C152.51 379.86 122.522 392.834 96.3369 399.524M240.758 120.683L322.088 195.487M240.758 120.683C240.758 120.683 235.356 118.431 253.634 98.5589C271.912 78.6863 274.945 83.5137 274.945 83.5137M322.088 195.487C322.088 195.487 323.767 201.786 343.061 180.81C362.354 159.833 356.275 158.318 356.275 158.318M356.275 158.318L274.945 83.5137M356.275 158.318L392.831 118.573C415.979 93.4052 416.964 94.2551 388.378 68.0192C379.914 60.2341 372.554 53.4645 361.514 43.3101C334.642 18.595 334.892 18.3367 311.501 43.7687L274.945 83.5137M57.5179 363.82C55.1075 380.414 54.8552 395.337 60.3002 400.345C65.7452 405.353 80.3304 403.613 96.3369 399.524M57.5179 363.82C81.018 354.185 97.7028 364.911 96.3369 399.524" stroke="#7D7D7D" stroke-width="20"/>
</svg>
