<svg width="308" height="358" viewBox="0 0 308 358" fill="none" xmlns="http://www.w3.org/2000/svg">
<path d="M35.9997 101.5C2.99989 101.5 0.999426 46.0002 35.9997 46.0002C35.9997 10.5002 35.9997 10.4997 82 10.5002C114.41 10.5005 183.833 10.1668 224 10.5002C274 10.5002 274 10.5002 274 46.0002C307 47.0003 304.4 101.5 274 101.5V301.5C274 348.3 274 347.5 229.5 347.5H212H150.5H85H62.9997C35.9996 347.5 35.9997 340.2 35.9997 311V101.5Z" fill="white"/>
<path d="M35.9997 101.5C2.99989 101.5 0.999426 46.0002 35.9997 46.0002M35.9997 101.5V311C35.9997 340.2 35.9996 347.5 62.9997 347.5H85M35.9997 101.5H85M35.9997 46.0002C35.9997 10.5002 35.9997 10.4997 82 10.5002C114.41 10.5005 183.833 10.1668 224 10.5002C274 10.5002 274 10.5002 274 46.0002M35.9997 46.0002H274M274 46.0002C307 47.0003 304.4 101.5 274 101.5M274 101.5V301.5C274 348.3 274 347.5 229.5 347.5H212M274 101.5H212M85 101.5V347.5M85 101.5H150.5M85 347.5H150.5M150.5 347.5V101.5M150.5 347.5H212M150.5 101.5H212M212 101.5V347.5" stroke="#9A0000" stroke-width="20"/>
</svg>
