<svg width="146" height="152" viewBox="0 0 146 152" fill="none" xmlns="http://www.w3.org/2000/svg">
<path d="M78 120C46.4 120 28.5 50 23.5 15H125C122.5 50 109.6 120 78 120Z" fill="#0500F8" stroke="#0500F8" stroke-width="4"/>
<path d="M134.5 15H9.5C8.5 14.6667 6.5 13.5 6.5 11.5C6.5 9.5 8.5 8.66667 9.5 8.5L134.5 8C135.667 8.16667 138 9.1 138 11.5C138 13.9 135.667 14.8333 134.5 15Z" fill="#0500F8" stroke="#0500F8" stroke-width="4"/>
<path d="M108.5 91C154.738 79.6399 138.309 48.0752 123.5 33L122.5 38.5C148.1 71.3 125.5 83.1667 111 85L108.5 91Z" fill="#0500F8" stroke="#0500F8" stroke-width="4"/>
<path d="M45.3956 90.4525C-8.48493 79.22 9.62921 47.5763 26.3451 32.4426L27.6624 37.9448C-1.03848 70.8524 25.4798 82.6626 42.3266 84.4543L45.3956 90.4525Z" fill="#0500F8" stroke="#0500F8" stroke-width="4"/>
<path d="M27.5 38H122.5" stroke="#0500F8" stroke-width="4"/>
<path d="M26.5 33H123.5" stroke="#0500F8" stroke-width="4"/>
<path d="M64 136H92V115C77.3382 122.814 75.5 120.5 64 115.5V136Z" fill="#0500F8" stroke="#0500F8" stroke-width="4"/>
<path d="M92.5 131H92" stroke="#0500F8" stroke-width="4"/>
<rect x="52" y="138" width="53" height="12" fill="#0500F8" stroke="#0500F8" stroke-width="4"/>
</svg>
