<svg width="170" height="168" viewBox="0 0 170 168" fill="none" xmlns="http://www.w3.org/2000/svg">
<g clip-path="url(#clip0)">
<path fill-rule="evenodd" clip-rule="evenodd" d="M62.5 113.924H106.5V153.759H105.5V114.924H63.5V153.424H62.5V113.924Z" stroke="#A5A3A3" stroke-width="4"/>
<path fill-rule="evenodd" clip-rule="evenodd" d="M121.176 153.877C124.248 154.137 128.823 153.368 132.642 150.224C136.488 147.058 139.5 141.537 139.5 132.424H138.5C138.5 141.3 135.578 146.512 132.006 149.452C128.416 152.408 124.102 153.126 121.24 152.879L121.219 152.877H105.5V153.877H121.176Z" stroke="#A5A3A3" stroke-width="4"/>
<path fill-rule="evenodd" clip-rule="evenodd" d="M139.5 77.4241V132.424H138.5V77.4241H139.5Z" stroke="#A5A3A3" stroke-width="4"/>
<path fill-rule="evenodd" clip-rule="evenodd" d="M138.5 76.9241H160V77.9241H138.5V76.9241Z" stroke="#A5A3A3" stroke-width="4"/>
<path fill-rule="evenodd" clip-rule="evenodd" d="M159.657 77.7879L82.657 5.19647L83.343 4.46884L160.343 77.0603L159.657 77.7879Z" stroke="#A5A3A3" stroke-width="4"/>
<path fill-rule="evenodd" clip-rule="evenodd" d="M47.3628 153.877C44.2045 154.136 39.4972 153.37 35.5662 150.229C31.6056 147.064 28.5 141.542 28.5 132.424H29.5C29.5 141.295 32.5085 146.506 36.1904 149.448C39.8932 152.407 44.3448 153.126 47.3005 152.879L47.3212 152.877H63.5V153.877H47.3628Z" stroke="#A5A3A3" stroke-width="4"/>
<path fill-rule="evenodd" clip-rule="evenodd" d="M28.5 77.4241V132.424H29.5V77.4241H28.5Z" stroke="#A5A3A3" stroke-width="4"/>
<path fill-rule="evenodd" clip-rule="evenodd" d="M29.5 76.9241H9V77.9241H29.5V76.9241Z" stroke="#A5A3A3" stroke-width="4"/>
<path fill-rule="evenodd" clip-rule="evenodd" d="M9.15009 77.067L83.1501 4.56699L83.8499 5.2813L9.84992 77.7813L9.15009 77.067Z" stroke="#A5A3A3" stroke-width="4"/>
</g>
<defs>
<clipPath id="clip0">
<rect width="170" height="168" fill="white"/>
</clipPath>
</defs>
</svg>
