<svg width="3543" height="3794" viewBox="0 0 3543 3794" fill="none" xmlns="http://www.w3.org/2000/svg">
<path d="M2789 3236.5H297V2787.5V2406.5C297 1748 1043.5 1585 1582 1585C2129.28 1585 2789 1765 2789 2379.5V3236.5Z" fill="white" stroke="#C4C4C4" stroke-width="200"/>
<path d="M2312 960C2312 1374.79 1969.36 1714 1543 1714C1116.64 1714 774 1374.79 774 960C774 545.212 1116.64 206 1543 206C1969.36 206 2312 545.212 2312 960Z" fill="white" stroke="#C4C4C4" stroke-width="200"/>
<path d="M3111.41 2726.84C3134.41 2584 3262.04 2528.78 3358.6 2436.81C3358.6 2436.81 3377.25 2418.89 3364.61 2393.36L3250.53 2194.94C3228.06 2155.64 3210.45 2166.15 3194.08 2164.13C3160.15 2157.17 2904.8 2269.6 2755.04 2164.13C2681.02 2089.85 2682.67 2028.16 2662.46 1922.08L2656.23 1882.69C2656.23 1882.69 2640.14 1816.21 2608.41 1814L2183.02 1821.48C2132.76 1820.13 2131.56 1862.64 2129.43 1891.96C2129.29 1893.96 2129.16 1896.32 2129.03 1899.01C2129 1899.52 2128.98 1900.04 2128.95 1900.57L2128.94 1900.92C2127.44 1931.66 2072.67 2044.3 2030.16 2093.62C1896.03 2199.07 1642.05 2113.76 1611.66 2120.72C1597 2122.74 1581.23 2112.24 1561.11 2151.52L1510.02 2250.72L1458.94 2349.92C1447.62 2375.44 1464.32 2393.36 1464.32 2393.36C1550.79 2485.32 1656.09 2546.98 1676.69 2689.81C1655.73 2798.31 1676.1 2872.65 1471.66 3034.44C1471.66 3034.44 1453.45 3053.92 1464.32 3080.88L1513.98 3185.52L1538.81 3237.84L1563.64 3290.16C1583.2 3331.6 1606.83 3324.22 1615.43 3321.88C1615.43 3321.88 1875.85 3257.18 2030.16 3351.94C2060.35 3374.28 2126.38 3439.19 2148.98 3520.17C2148.98 3520.17 2152.87 3570.15 2184.55 3572.92H2610.03C2660.24 3575.15 2662.5 3532.67 2665.35 3503.4C2668.21 3474.13 2668.53 3366.78 2754.93 3317.35C2850.21 3262.84 2907.84 3262.61 3049.88 3275.74C3049.88 3275.74 3076.21 3283.32 3097.75 3262.84L3178.21 3176.91L3218.44 3133.95L3258.68 3090.98C3289.99 3057.69 3274.32 3040.46 3268.22 3033.76L3267.88 3033.39C3267.88 3033.39 3083.76 2898.54 3111.41 2726.84Z" fill="white"/>
<path d="M2129.43 1891.96C2129.29 1893.96 2129.16 1896.32 2129.03 1899.01C2129 1899.63 2128.97 1900.27 2128.94 1900.92C2127.44 1931.66 2072.67 2044.3 2030.16 2093.62C1896.03 2199.07 1642.05 2113.76 1611.66 2120.72C1597 2122.74 1581.23 2112.24 1561.11 2151.52L1510.02 2250.72L1458.94 2349.92C1447.62 2375.44 1464.32 2393.36 1464.32 2393.36C1550.79 2485.32 1656.09 2546.98 1676.69 2689.81C1655.73 2798.31 1676.1 2872.65 1471.66 3034.44C1471.66 3034.44 1453.45 3053.92 1464.32 3080.88L1513.98 3185.52L1538.81 3237.84L1563.64 3290.16C1583.2 3331.6 1606.83 3324.22 1615.43 3321.88C1615.43 3321.88 1875.85 3257.18 2030.16 3351.94C2060.35 3374.28 2126.38 3439.19 2148.98 3520.17C2148.98 3520.17 2152.87 3570.15 2184.55 3572.92H2610.03C2660.24 3575.15 2662.5 3532.67 2665.35 3503.4C2668.21 3474.13 2668.53 3366.78 2754.93 3317.35C2850.21 3262.84 2907.84 3262.61 3049.88 3275.74C3049.88 3275.74 3076.21 3283.32 3097.75 3262.84L3178.21 3176.91L3218.44 3133.95L3258.68 3090.98C3290.6 3057.04 3273.69 3039.8 3267.88 3033.39C3267.88 3033.39 3083.76 2898.54 3111.41 2726.84C3134.41 2584 3262.04 2528.78 3358.6 2436.81C3358.6 2436.81 3377.25 2418.89 3364.61 2393.36L3250.53 2194.94C3228.06 2155.64 3210.45 2166.15 3194.08 2164.13C3160.15 2157.17 2904.8 2269.6 2755.04 2164.13C2681.02 2089.85 2682.67 2028.16 2662.46 1922.08L2656.23 1882.69C2656.23 1882.69 2640.14 1816.21 2608.41 1814L2183.02 1821.48C2132.76 1820.13 2131.56 1862.64 2129.43 1891.96ZM2129.43 1891.96L2129.43 1891.96" stroke="#C4C4C4" stroke-width="120"/>
<ellipse cx="2333" cy="2710" rx="451" ry="452" fill="#C4C4C4"/>
</svg>
