<svg width="6227" height="9958" viewBox="0 0 6227 9958" fill="none" xmlns="http://www.w3.org/2000/svg">
<g clip-path="url(#clip0)">
<path d="M966.86 9670.96L381.719 7204.5L3204.39 1199.59C3204.39 1199.59 3578.24 414.934 3617.52 378.235C3777.52 228.704 3810.36 14.1974 4826.29 220.036C5842.22 425.875 6117.09 850.179 6000.73 1065.44C5884.38 1280.7 5587.6 1886.8 5587.6 1886.8L2764.94 7891.7L966.86 9670.96Z" fill="white"/>
<path d="M381.719 7204.5L966.86 9670.96L2764.94 7891.7M381.719 7204.5L3204.39 1199.59M381.719 7204.5L1573.33 7548.1L2764.94 7891.7M2764.94 7891.7L5587.6 1886.8M5587.6 1886.8L4395.99 1543.19L3204.39 1199.59M5587.6 1886.8C5587.6 1886.8 5884.38 1280.7 6000.73 1065.44C6117.09 850.179 5842.22 425.875 4826.29 220.036C3810.36 14.1974 3777.52 228.704 3617.52 378.235C3578.24 414.934 3204.39 1199.59 3204.39 1199.59" stroke="#C4C4C4" stroke-width="400"/>
</g>
<defs>
<clipPath id="clip0">
<rect width="6227" height="9958" fill="white"/>
</clipPath>
</defs>
</svg>
