<svg width="144" height="158" viewBox="0 0 144 158" fill="none" xmlns="http://www.w3.org/2000/svg">
<path d="M75.5229 120C43.9229 120 26.0229 50 21.0229 15H122.523C120.023 50 107.123 120 75.5229 120Z" fill="white" stroke="#C4C4C4" stroke-width="10"/>
<path d="M42.9187 90.4525C-10.9619 79.22 7.15228 47.5763 23.8682 32.4426L25.1855 37.9448C-3.51541 70.8524 23.0029 82.6626 39.8497 84.4543L42.9187 90.4525Z" fill="white" stroke="#C4C4C4" stroke-width="10"/>
<path d="M25.0229 38H120.023" stroke="#C4C4C4" stroke-width="10"/>
<path d="M24.0229 33H121.023" stroke="#C4C4C4" stroke-width="10"/>
<path d="M61.5229 136H89.5229V115C74.8611 122.814 73.0229 120.5 61.5229 115.5V136Z" fill="white" stroke="#C4C4C4" stroke-width="10"/>
<path d="M90.0229 131H89.5229" stroke="#C4C4C4" stroke-width="10"/>
<rect x="51.5229" y="140" width="49" height="8" fill="white" stroke="#C4C4C4" stroke-width="8"/>
<path d="M133.023 14H8.02295C7.02295 13.6667 5.02295 12.5 5.02295 10.5C5.02295 8.5 7.02295 7.66667 8.02295 7.5L133.023 7C134.19 7.16667 136.523 8.1 136.523 10.5C136.523 12.9 134.19 13.8333 133.023 14Z" fill="white" stroke="#C4C4C4" stroke-width="10"/>
<path d="M107.023 89.9999C153.261 78.6398 136.832 47.075 122.023 31.9999L121.023 37.4999C146.623 70.2999 124.023 82.1665 109.523 83.9999L107.023 89.9999Z" fill="white" stroke="#C4C4C4" stroke-width="10"/>
</svg>
