<svg width="7990" height="10679" viewBox="0 0 7990 10679" fill="none" xmlns="http://www.w3.org/2000/svg">
<g clip-path="url(#clip0)">
<path d="M1323.47 4671.1C2273.57 6528.37 489 7135.41 489 8652.17C1289.77 10350.7 2639.6 9359.88 3214.41 8652.17C3881.72 7628.5 4738.06 5308.14 2824.92 4216.07C911.785 3124 1694.13 1107 2324.44 235C637.328 1119.72 489.495 3040.84 1323.47 4671.1Z" fill="white" stroke="#C4C4C4" stroke-width="500"/>
<path d="M4829.47 5525.1C5779.57 7382.37 3995 7989.41 3995 9506.17C4795.77 11204.7 6145.6 10213.9 6720.41 9506.17C7387.72 8482.5 8244.06 6162.14 6330.92 5070.07C4417.79 3978 5200.13 1961 5830.44 1089C4143.33 1973.72 3995.5 3894.84 4829.47 5525.1Z" fill="white" stroke="#C4C4C4" stroke-width="500"/>
<path d="M2724.47 5209.1C3674.57 7066.37 1890 7673.41 1890 9190.17C2690.77 10888.7 4040.6 9897.88 4615.41 9190.17C5282.72 8166.5 6139.06 5846.14 4225.92 4754.07C2312.79 3662 3095.13 1645 3725.44 773C2038.33 1657.72 1890.5 3578.84 2724.47 5209.1Z" fill="white" stroke="#C4C4C4" stroke-width="500"/>
</g>
<defs>
<clipPath id="clip0">
<rect width="7990" height="10679" fill="white"/>
</clipPath>
</defs>
</svg>
