<svg width="5127" height="5963" viewBox="0 0 5127 5963" fill="none" xmlns="http://www.w3.org/2000/svg">
<path d="M1193 2464H3935C4363.02 2464 4710 2810.98 4710 3239V4902C4710 5330.02 4363.02 5677 3935 5677H1193C764.979 5677 418 5330.02 418 4902V3239C418 2810.98 764.979 2464 1193 2464Z" fill="white" stroke="#C4C4C4" stroke-width="180"/>
<path d="M2481.59 662.892C1577.7 662.892 1711.49 1826.46 1697.01 2374H1131C1152.79 1662.83 1065.62 195 2481.59 195C3941 195 3908.39 1632.5 3941 2374H3385.49C3316.45 1780.8 3385.49 662.892 2481.59 662.892Z" fill="white" stroke="#C4C4C4" stroke-width="180"/>
<ellipse cx="2564" cy="4079.5" rx="896" ry="878.5" fill="#C4C4C4"/>
</svg>
