<svg width="5977" height="5455" viewBox="0 0 5977 5455" fill="none" xmlns="http://www.w3.org/2000/svg">
<path d="M1488.81 742.057H1485.12V745.08H1489.41V746H1483.99V737.469H1489.35V738.395H1485.12V741.137H1488.81V742.057Z" fill="black"/>
<path d="M1141 295H4967C5378.45 295 5712 628.548 5712 1040V4442C5712 4853.45 5378.45 5187 4967 5187H1141C729.548 5187 396 4853.45 396 4442V1040C396 628.548 729.548 295 1141 295Z" fill="white" stroke="#C4C4C4" stroke-width="240"/>
<path d="M297 1825.5L3040 3867.5L5752.5 1825.5" stroke="#C4C4C4" stroke-width="240"/>
<path d="M1517.5 5246.5L2530 3554.5" stroke="#C4C4C4" stroke-width="240"/>
<path d="M3496.8 3480.2L4473.45 5240.63" stroke="#C4C4C4" stroke-width="240"/>
</svg>
