<svg width="2995" height="3524" viewBox="0 0 2995 3524" fill="none" xmlns="http://www.w3.org/2000/svg">
<path d="M1488.81 742.057H1485.12V745.08H1489.41V746H1483.99V737.469H1489.35V738.395H1485.12V741.137H1488.81V742.057Z" fill="black"/>
<path d="M2744 3199.5H252V2750.5V2369.5C252 1711 998.5 1548 1537 1548C2084.28 1548 2744 1728 2744 2342.5V3199.5Z" fill="white" stroke="#C4C4C4" stroke-width="200"/>
<path d="M2267 923C2267 1337.79 1924.36 1677 1498 1677C1071.64 1677 729 1337.79 729 923C729 508.212 1071.64 169 1498 169C1924.36 169 2267 508.212 2267 923Z" fill="white" stroke="#C4C4C4" stroke-width="200"/>
</svg>
