<svg width="198" height="142" viewBox="0 0 198 142" fill="none" xmlns="http://www.w3.org/2000/svg">
<path d="M8 6H126.534C134.292 37.1601 154.622 93.8015 179.849 101.364H191C187.197 102.524 183.472 102.45 179.849 101.364H134.852V128.467L126.534 137H8V6Z" fill="white"/>
<path d="M8 6H126.534C135.407 41.636 160.722 110.599 191 101.364H134.852M8 6V137M8 6C9.614 12.4824 11.7721 20.0676 14.4051 28.0843M8 137H126.534L134.852 128.467M8 137L15.4864 128.467M15.4864 128.467H134.852M15.4864 128.467L14.4051 28.0843M134.852 128.467V101.364M134.852 101.364H126.534H72.4659C47.6955 108.919 26.2469 64.1381 14.4051 28.0843" stroke="#C4C4C4" stroke-width="8"/>
</svg>
