<svg width="5606" height="5698" viewBox="0 0 5606 5698" fill="none" xmlns="http://www.w3.org/2000/svg">
<path d="M1488.81 742.057H1485.12V745.08H1489.41V746H1483.99V737.469H1489.35V738.395H1485.12V741.137H1488.81V742.057Z" fill="black"/>
<rect x="1596.75" y="4145.75" width="213.5" height="1363.5" fill="white" stroke="#C4C4C4" stroke-width="213.5"/>
<path d="M2867 2789C2867 3482.84 2312.25 4042 1632 4042C951.748 4042 397 3482.84 397 2789C397 2095.16 951.748 1536 1632 1536C2312.25 1536 2867 2095.16 2867 2789Z" fill="white" stroke="#C4C4C4" stroke-width="300"/>
<rect x="-125.496" y="127.61" width="253.188" height="1458.15" transform="matrix(0.00864125 0.999963 -0.999967 0.00806206 2547.66 5017.84)" fill="white" stroke="#C4C4C4" stroke-width="253.188"/>
<path d="M3961.11 2226.58C3961.11 2895.01 3377.74 3454.07 2636.19 3454.07C1894.65 3454.07 1311.28 2895.01 1311.28 2226.58C1311.28 1558.14 1894.65 999.084 2636.19 999.084C3377.74 999.084 3961.11 1558.14 3961.11 2226.58Z" fill="white" stroke="#C4C4C4" stroke-width="300"/>
<path d="M3831.47 1561.13L3566.99 1256.77L4724.41 459.184L4972.24 775.024L3831.47 1561.13Z" fill="#C4C4C4" stroke="#C4C4C4" stroke-width="300"/>
<rect x="5003.75" y="214.75" width="199.5" height="1193.5" fill="white" stroke="#C4C4C4" stroke-width="199.5"/>
<rect x="5200.35" y="218.651" width="209.273" height="1209.59" transform="rotate(90.3931 5200.35 218.651)" fill="white" stroke="#C4C4C4" stroke-width="209.273"/>
</svg>
