<svg width="237" height="225" viewBox="0 0 237 225" fill="none" xmlns="http://www.w3.org/2000/svg">
<path d="M217 87.5C217 126.706 184.156 159 143 159C101.844 159 69 126.706 69 87.5C69 48.2943 101.844 16 143 16C184.156 16 217 48.2943 217 87.5Z" stroke="white" stroke-width="25"/>
<mask id="path-2-inside-1" fill="white">
<path d="M0 208.901L89.6157 125L104 136.099L14.3843 220L0 208.901Z"/>
</mask>
<path d="M0 208.901L89.6157 125L104 136.099L14.3843 220L0 208.901Z" fill="white"/>
<path d="M0 208.901L-27.338 179.701L-61.6678 211.842L-24.4353 240.57L0 208.901ZM89.6157 125L114.051 93.3311L87.1144 72.5472L62.2778 95.8001L89.6157 125ZM104 136.099L131.338 165.299L165.668 133.158L128.435 104.43L104 136.099ZM14.3843 220L-10.051 251.669L16.8856 272.453L41.7222 249.2L14.3843 220ZM27.338 238.101L116.954 154.2L62.2778 95.8001L-27.338 179.701L27.338 238.101ZM65.1805 156.669L79.5647 167.768L128.435 104.43L114.051 93.3311L65.1805 156.669ZM76.662 106.899L-12.9537 190.8L41.7222 249.2L131.338 165.299L76.662 106.899ZM38.8195 188.331L24.4353 177.232L-24.4353 240.57L-10.051 251.669L38.8195 188.331Z" fill="white" mask="url(#path-2-inside-1)"/>
</svg>
