<svg width="5977" height="5455" viewBox="0 0 5977 5455" fill="none" xmlns="http://www.w3.org/2000/svg">
<path d="M1488.81 742.057H1485.12V745.08H1489.41V746H1483.99V737.469H1489.35V738.395H1485.12V741.137H1488.81V742.057Z" fill="black"/>
<path d="M4409 5293H1568V2781.98C1568 2184.33 2051.26 1995.88 2179.67 1976.37C2708.84 1967.03 3464.46 1953.97 3835.32 1976.37C4206.19 1998.77 4409 2333.04 4409 2781.98V5293Z" fill="white" stroke="#C4C4C4" stroke-width="20"/>
<path d="M3981 1015C3981 1479.68 3538.21 1859 2988.5 1859C2438.79 1859 1996 1479.68 1996 1015C1996 550.315 2438.79 171 2988.5 171C3538.21 171 3981 550.315 3981 1015Z" fill="white" stroke="#C4C4C4" stroke-width="20"/>
</svg>
