<svg width="1959" height="2239" viewBox="0 0 1959 2239" fill="none" xmlns="http://www.w3.org/2000/svg">
<path d="M1288.48 2064H53V1077.39C53 842.568 263.156 768.527 319 760.859C549.12 757.192 877.719 752.059 1039 760.859C1200.28 769.66 1288.48 901 1288.48 1077.39V2064Z" fill="white" stroke="#FF0303" stroke-width="20"/>
<path d="M1011 354C1011 544.066 858.249 698 670 698C481.751 698 329 544.066 329 354C329 163.934 481.751 10 670 10C858.249 10 1011 163.934 1011 354Z" fill="white" stroke="#FF0303" stroke-width="20"/>
<path d="M1905.48 2185H670V1198.39C670 963.568 880.156 889.527 936 881.859C1166.12 878.192 1494.72 873.059 1656 881.859C1817.28 890.66 1905.48 1022 1905.48 1198.39V2185Z" fill="white" stroke="#FF0303" stroke-width="20"/>
<path d="M1605 488.5C1605 667.927 1454.02 814 1267 814C1079.98 814 929 667.927 929 488.5C929 309.073 1079.98 163 1267 163C1454.02 163 1605 309.073 1605 488.5Z" fill="white" stroke="#FF0303" stroke-width="20"/>
</svg>
