<svg width="5977" height="5455" viewBox="0 0 5977 5455" fill="none" xmlns="http://www.w3.org/2000/svg">
<path d="M1488.81 742.057H1485.12V745.08H1489.41V746H1483.99V737.469H1489.35V738.395H1485.12V741.137H1488.81V742.057Z" fill="black"/>
<rect x="1779" y="3879" width="308" height="1418" fill="white" stroke="#C4C4C4" stroke-width="40"/>
<path d="M3188 2615C3188 3313.57 2602.13 3881 1878 3881C1153.87 3881 568 3313.57 568 2615C568 1916.44 1153.87 1349 1878 1349C2602.13 1349 3188 1916.44 3188 2615Z" fill="white" stroke="#C4C4C4" stroke-width="40"/>
<rect x="2539.29" y="4533.89" width="344.218" height="1247.13" transform="rotate(89.5218 2539.29 4533.89)" fill="white" stroke="#C4C4C4" stroke-width="40"/>
<path d="M4270.15 2052C4270.15 2750.57 3684.28 3318 2960.15 3318C2236.01 3318 1650.15 2750.57 1650.15 2052C1650.15 1353.44 2236.01 786.002 2960.15 786.002C3684.28 786.002 4270.15 1353.44 4270.15 2052Z" fill="white" stroke="#C4C4C4" stroke-width="40"/>
<path d="M2067 3909.5L1799 3909.5L1799 3855L2067 3839.5L2067 3909.5Z" fill="white"/>
<path d="M4139.68 1439.09L3862.88 1100.84L5073.79 214.857L5333.17 565.856L4139.68 1439.09Z" fill="white" stroke="#C4C4C4" stroke-width="40"/>
<rect x="5136" y="165.002" width="273" height="1239" fill="white" stroke="#C4C4C4" stroke-width="40"/>
<rect x="5376.04" y="165.638" width="281.002" height="1239" transform="rotate(90.3931 5376.04 165.638)" fill="white" stroke="#C4C4C4" stroke-width="40"/>
<path d="M5389.5 525.002L5116 700.002L4767.5 462.502L5142 185.502H5389V467.002L5389.5 525.002Z" fill="white"/>
<path d="M4088 1448L4145 1410.5L3902 1097L3833.5 1147L4088 1448Z" fill="white"/>
<path d="M1799 4519V4905H2067V4515.5L1799 4519Z" fill="white"/>
</svg>
